<svg width="323" height="315" viewBox="0 0 323 315" fill="none" xmlns="http://www.w3.org/2000/svg">
<path d="M321.477 1.16956H1V261.31H321.477V1.16956Z" fill="#F071BB" stroke="#1D1D1B" stroke-width="2" stroke-miterlimit="10"/>
<path d="M95.6788 44.9934H17.0762V202.666H95.6788V44.9934Z" fill="#1D1D1B"/>
<path d="M306.529 44.9934H227.926V202.666H306.529V44.9934Z" fill="#1D1D1B"/>
<path d="M219.234 10.171H104.103V261.31H219.234V10.171Z" fill="#F071BB" stroke="#1D1D1B" stroke-width="2" stroke-miterlimit="10"/>
<path d="M202.968 44.9934H120.063V135.993H202.968V44.9934Z" fill="#1D1D1B"/>
<path d="M202.968 152.811H120.063V243.811H202.968V152.811Z" fill="#1D1D1B"/>
<path d="M1 19.1724L1 261.31H8.7327L8.7327 19.1724H1Z" fill="#F071BB" stroke="#1D1D1B" stroke-width="2" stroke-miterlimit="10"/>
<path d="M315.463 19.1724V261.31H321.477V19.1724H315.463Z" fill="#F071BB" stroke="#1D1D1B" stroke-width="2" stroke-miterlimit="10"/>
<path d="M95.6788 213.177H17.0762V253.121H95.6788V213.177Z" fill="#F071BB" stroke="#1D1D1B" stroke-width="2" stroke-miterlimit="10"/>
<path d="M17.0762 217.908H95.6788" stroke="#1D1D1B" stroke-width="2" stroke-miterlimit="10"/>
<path d="M17.0762 222.938H95.6788" stroke="#1D1D1B" stroke-width="2" stroke-miterlimit="10"/>
<path d="M17.0762 227.969H95.6788" stroke="#1D1D1B" stroke-width="2" stroke-miterlimit="10"/>
<path d="M17.0762 232.999H95.6788" stroke="#1D1D1B" stroke-width="2" stroke-miterlimit="10"/>
<path d="M17.0762 238.03H95.6788" stroke="#1D1D1B" stroke-width="2" stroke-miterlimit="10"/>
<path d="M17.0762 243.06H95.6788" stroke="#1D1D1B" stroke-width="2" stroke-miterlimit="10"/>
<path d="M17.0762 248.091H95.6788" stroke="#1D1D1B" stroke-width="2" stroke-miterlimit="10"/>
<path d="M306.529 213.177H227.926V253.121H306.529V213.177Z" fill="#F071BB" stroke="#1D1D1B" stroke-width="2" stroke-miterlimit="10"/>
<path d="M227.926 217.908H306.529" stroke="#1D1D1B" stroke-width="2" stroke-miterlimit="10"/>
<path d="M227.926 222.938H306.529" stroke="#1D1D1B" stroke-width="2" stroke-miterlimit="10"/>
<path d="M227.926 227.969H306.529" stroke="#1D1D1B" stroke-width="2" stroke-miterlimit="10"/>
<path d="M227.926 232.999H306.529" stroke="#1D1D1B" stroke-width="2" stroke-miterlimit="10"/>
<path d="M227.926 238.03H306.529" stroke="#1D1D1B" stroke-width="2" stroke-miterlimit="10"/>
<path d="M227.926 243.06H306.529" stroke="#1D1D1B" stroke-width="2" stroke-miterlimit="10"/>
<path d="M227.926 248.091H306.529" stroke="#1D1D1B" stroke-width="2" stroke-miterlimit="10"/>
<path d="M104.099 261L73 314.108" stroke="#1D1D1B" stroke-width="2" stroke-miterlimit="10"/>
<path d="M219 261L249.157 314.108" stroke="#1D1D1B" stroke-width="2" stroke-miterlimit="10"/>
</svg>
