<svg width="91" height="85" viewBox="0 0 91 85" fill="none" xmlns="http://www.w3.org/2000/svg">
<path d="M78.822 84.1842H11.6442C5.23987 84.1842 0 78.9451 0 72.5417V11.6425C0 5.23912 5.23987 0 11.6442 0H78.822C85.2263 0 90.4661 5.23912 90.4661 11.6425V72.5417C90.4661 78.9451 85.2263 84.1842 78.822 84.1842Z" fill="#E9EB02"/>
<path d="M79.0145 79.9302H11.4515C7.09838 79.9302 3.53796 76.3703 3.53796 72.0178V12.1709C3.53796 7.81839 7.09838 4.25845 11.4515 4.25845H79.01C83.3631 4.25845 86.9236 7.81839 86.9236 12.1709V72.0178C86.928 76.3703 83.3676 79.9302 79.0145 79.9302Z" stroke="white" stroke-width="2" stroke-miterlimit="10"/>
<path d="M15.2135 16.7696C15.3075 16.8591 15.3568 16.998 15.3568 17.1905V24.9955C15.3568 25.188 15.3075 25.3268 15.2135 25.4164C15.1194 25.506 14.9582 25.5508 14.7388 25.5508C14.5238 25.5508 14.3715 25.506 14.273 25.4119C14.1745 25.3179 14.1297 25.179 14.1297 24.9955V21.4625H9.78104V24.9955C9.78104 25.179 9.73177 25.3179 9.63324 25.4119C9.53471 25.506 9.37797 25.5508 9.163 25.5508C8.95251 25.5508 8.79578 25.506 8.70173 25.4119C8.60768 25.3179 8.55841 25.179 8.55841 24.9955V17.1905C8.55841 16.998 8.60768 16.8591 8.70173 16.7696C8.79578 16.68 8.95251 16.6353 9.163 16.6353C9.37797 16.6353 9.53023 16.68 9.63324 16.7696C9.73177 16.8591 9.78104 16.998 9.78104 17.1905V20.3116H14.1297V17.1905C14.1297 16.998 14.179 16.8591 14.273 16.7696C14.3671 16.68 14.5238 16.6353 14.7388 16.6353C14.9582 16.6353 15.115 16.68 15.2135 16.7696Z" fill="#1D1D1B" stroke="#1D1D1B" stroke-miterlimit="10"/>
<path d="M18.9665 25.0761C18.3933 24.7582 17.9678 24.3283 17.6946 23.7865C17.4214 23.2491 17.2826 22.6491 17.2826 21.9908V20.1997C17.2826 19.5414 17.4214 18.9414 17.6946 18.4041C17.9678 17.8667 18.3933 17.4368 18.9665 17.1144C19.5398 16.792 20.2519 16.6353 21.1028 16.6353C21.9537 16.6353 22.6658 16.7965 23.239 17.1144C23.8123 17.4324 24.2377 17.8622 24.5154 18.4041C24.7931 18.9459 24.9319 19.5414 24.9319 20.1997V21.9908C24.9319 22.6491 24.7931 23.2491 24.5154 23.7865C24.2377 24.3238 23.8123 24.7537 23.239 25.0761C22.6658 25.394 21.9537 25.5552 21.1028 25.5552C20.2519 25.5552 19.5398 25.394 18.9665 25.0761ZM23.0062 23.7103C23.4719 23.2581 23.7003 22.5999 23.7003 21.7311V20.455C23.7003 19.5907 23.4674 18.9325 23.0062 18.4757C22.5449 18.0235 21.9089 17.7951 21.1073 17.7951C20.3056 17.7951 19.6696 18.0235 19.2128 18.4757C18.7515 18.928 18.5232 19.5863 18.5232 20.455V21.7311C18.5232 22.5954 18.7515 23.2536 19.2128 23.7103C19.6741 24.1626 20.3056 24.391 21.1073 24.391C21.9089 24.391 22.5404 24.1626 23.0062 23.7103Z" fill="#1D1D1B" stroke="#1D1D1B" stroke-miterlimit="10"/>
<path d="M26.8621 17.1503C26.8621 16.9801 26.9159 16.8502 27.0233 16.7651C27.1308 16.6801 27.2741 16.6353 27.4622 16.6353C27.6414 16.6353 27.7757 16.6577 27.8653 16.707C27.9549 16.7562 28.031 16.8458 28.0937 16.9756L31.0271 23.37L33.9651 16.9756C34.0188 16.8503 34.0949 16.7651 34.1845 16.7114C34.2785 16.6621 34.4129 16.6353 34.5921 16.6353C34.7846 16.6353 34.9324 16.6801 35.0354 16.7651C35.1384 16.8502 35.1877 16.9801 35.1877 17.1503V24.9866C35.1877 25.3717 34.9906 25.5642 34.5921 25.5642C34.1935 25.5642 33.9964 25.3717 33.9964 24.9866V22.1118C33.9964 21.1714 34.0367 20.2758 34.1218 19.425H34.0905L31.6273 24.8209C31.5601 24.9373 31.4795 25.0224 31.3854 25.0716C31.2914 25.1254 31.1749 25.1478 31.0316 25.1478C30.8883 25.1478 30.7674 25.1209 30.6778 25.0716C30.5838 25.0224 30.5032 24.9373 30.436 24.8209L27.9728 19.425H27.9414C28.022 20.2758 28.0668 21.1714 28.0668 22.1118V24.9866C28.0668 25.3717 27.8698 25.5642 27.4712 25.5642C27.0726 25.5642 26.8755 25.3717 26.8755 24.9866V17.1503H26.8621Z" fill="#1D1D1B" stroke="#1D1D1B" stroke-miterlimit="10"/>
<path d="M38.0092 25.4299C37.8032 25.4299 37.6554 25.3806 37.5613 25.2866C37.4673 25.1925 37.4225 25.0403 37.4225 24.8343V17.3383C37.4225 17.1323 37.4673 16.9801 37.5613 16.8861C37.6554 16.792 37.8032 16.7428 38.0092 16.7428H42.8997C43.0789 16.7428 43.2087 16.7875 43.2849 16.8771C43.3655 16.9666 43.4013 17.11 43.4013 17.3115C43.4013 17.5085 43.361 17.6563 43.2759 17.7458C43.1953 17.8354 43.0654 17.8802 42.8952 17.8802H38.6317V20.4236H42.6713C42.8415 20.4236 42.9714 20.4684 43.052 20.5579C43.1326 20.6475 43.1774 20.7908 43.1774 20.9923C43.1774 21.1893 43.1371 21.3371 43.0609 21.4311C42.9803 21.5251 42.8549 21.57 42.6758 21.57H38.6361V24.3104H43.0027C43.1818 24.3104 43.3117 24.3552 43.3923 24.4492C43.4729 24.5432 43.5177 24.6866 43.5177 24.8791C43.5177 25.0717 43.4774 25.2149 43.3923 25.3045C43.3117 25.3985 43.1774 25.4433 43.0027 25.4433H38.0092V25.4299Z" fill="#1D1D1B" stroke="#1D1D1B" stroke-miterlimit="10"/>
<path d="M45.0673 16.8727C45.1479 16.7831 45.2733 16.7383 45.4525 16.7383H51.4671C51.6373 16.7383 51.7672 16.7831 51.8478 16.8727C51.9284 16.9622 51.9732 17.1055 51.9732 17.307C51.9732 17.513 51.9329 17.6607 51.8478 17.7503C51.7672 17.8399 51.6373 17.8846 51.4671 17.8846H49.0666V25.0134C49.0666 25.197 49.0174 25.3358 48.9188 25.4299C48.8203 25.5239 48.668 25.5687 48.462 25.5687C48.256 25.5687 48.1038 25.5239 48.0052 25.4299C47.9067 25.3358 47.8574 25.197 47.8574 25.0134V17.8846H45.4569C45.2778 17.8846 45.1479 17.8399 45.0718 17.7503C44.9912 17.6607 44.9554 17.513 44.9554 17.307C44.9509 17.1055 44.9912 16.9622 45.0673 16.8727Z" fill="#1D1D1B" stroke="#1D1D1B" stroke-miterlimit="10"/>
<path d="M54.7812 25.0761C54.2079 24.7582 53.7825 24.3283 53.5093 23.7865C53.2361 23.2491 53.0973 22.6491 53.0973 21.9908V20.1997C53.0973 19.5414 53.2361 18.9414 53.5093 18.4041C53.7825 17.8667 54.2079 17.4368 54.7812 17.1144C55.3544 16.7965 56.0665 16.6353 56.9175 16.6353C57.7684 16.6353 58.4805 16.7965 59.0537 17.1144C59.627 17.4324 60.0524 17.8622 60.3301 18.4041C60.6078 18.9459 60.7466 19.5414 60.7466 20.1997V21.9908C60.7466 22.6491 60.6078 23.2491 60.3301 23.7865C60.0524 24.3238 59.627 24.7537 59.0537 25.0761C58.4805 25.394 57.7684 25.5552 56.9175 25.5552C56.0665 25.5552 55.3544 25.394 54.7812 25.0761ZM58.8208 23.7103C59.2866 23.2581 59.515 22.5999 59.515 21.7311V20.455C59.515 19.5907 59.2821 18.9325 58.8208 18.4757C58.3551 18.0235 57.7236 17.7951 56.9219 17.7951C56.1203 17.7951 55.4843 18.0235 55.0275 18.4757C54.5662 18.928 54.3378 19.5863 54.3378 20.455V21.7311C54.3378 22.5954 54.5662 23.2536 55.0275 23.7103C55.4888 24.1671 56.1203 24.391 56.9219 24.391C57.7236 24.391 58.3551 24.1626 58.8208 23.7103Z" fill="#1D1D1B" stroke="#1D1D1B" stroke-miterlimit="10"/>
<path d="M62.1843 17.2756C62.1708 17.2084 62.1619 17.1637 62.1619 17.1413C62.1619 16.998 62.2246 16.8771 62.3455 16.7875C62.4709 16.6935 62.6232 16.6488 62.8113 16.6488C62.9367 16.6488 63.0396 16.6711 63.1292 16.7204C63.2188 16.7696 63.277 16.8413 63.3039 16.9353L64.5937 21.5923C64.643 21.758 64.6878 21.9461 64.737 22.1655C64.7863 22.3804 64.8221 22.5461 64.849 22.6536C64.8624 22.7207 64.9206 22.9805 65.0236 23.4238H65.046L65.1177 23.1238C65.1535 22.9984 65.2162 22.7476 65.3147 22.367C65.4088 21.9863 65.5028 21.655 65.5924 21.3729L66.7747 17.0786C66.8554 16.9219 67.0121 16.8413 67.2405 16.8413C67.3704 16.8413 67.4689 16.8637 67.5271 16.9085C67.5898 16.9532 67.6391 17.0114 67.6839 17.0786L68.8662 21.3729C68.9558 21.655 69.0498 21.9863 69.1439 22.367C69.2379 22.7476 69.3051 23.0029 69.3409 23.1238L69.4126 23.4238H69.435C69.538 22.976 69.5962 22.7207 69.6096 22.6536C69.6365 22.5416 69.6768 22.3804 69.7216 22.1655C69.7708 21.9505 69.8157 21.758 69.8649 21.5923L71.1547 16.9353C71.1816 16.8413 71.2398 16.7651 71.3294 16.7204C71.419 16.6756 71.5265 16.6488 71.6474 16.6488C71.831 16.6488 71.9878 16.698 72.1132 16.792C72.2386 16.8861 72.2967 17.007 72.2967 17.1503C72.2967 17.1771 72.2878 17.2174 72.2744 17.2756L70.0799 25.1746C70.0127 25.4343 69.8201 25.5642 69.5021 25.5642C69.1663 25.5642 68.9602 25.4343 68.8841 25.1746L67.2584 19.4788H67.2181L65.579 25.1746C65.5028 25.4343 65.2923 25.5642 64.952 25.5642C64.634 25.5642 64.4459 25.4343 64.3743 25.1746L62.1843 17.2756Z" fill="#1D1D1B" stroke="#1D1D1B" stroke-miterlimit="10"/>
<path d="M74.0165 24.9866V17.1503C74.0165 16.9846 74.0702 16.8592 74.1822 16.7696C74.2941 16.6801 74.433 16.6353 74.6031 16.6353C74.7599 16.6353 74.8853 16.6577 74.9749 16.7025C75.0645 16.7473 75.1495 16.8278 75.2346 16.9443L79.8475 23.4238H79.8564C79.7893 22.3043 79.7534 21.4043 79.7534 20.7236V17.2129C79.7534 17.0204 79.8072 16.8771 79.9147 16.7786C80.0221 16.6845 80.1699 16.6353 80.3625 16.6353C80.564 16.6353 80.7074 16.6801 80.8059 16.7741C80.9044 16.8681 80.9492 17.0114 80.9492 17.2129V25.0492C80.9492 25.2149 80.8955 25.3403 80.7835 25.4299C80.6716 25.5194 80.5327 25.5642 80.3625 25.5642C80.2102 25.5642 80.0893 25.5374 79.9953 25.4836C79.9012 25.4299 79.8206 25.3448 79.7445 25.2373L75.1002 18.7086H75.0913C75.1719 19.5594 75.2167 20.455 75.2167 21.3953V24.9911C75.2167 25.3762 75.0197 25.5687 74.6211 25.5687C74.218 25.5642 74.0165 25.3717 74.0165 24.9866Z" fill="#1D1D1B" stroke="#1D1D1B" stroke-miterlimit="10"/>
<path d="M26.8308 32.9616C26.8308 32.6258 26.9114 32.3751 27.0771 32.2094C27.2428 32.0437 27.516 31.9631 27.9012 31.9631H30.1897C31.4258 31.9631 32.3036 32.2899 32.8276 32.9437C33.3515 33.5975 33.6113 34.4573 33.6113 35.5275V37.1037C33.6113 38.1739 33.3515 39.0381 32.8276 39.6874C32.3036 40.3412 31.4258 40.6681 30.1897 40.6681H27.9012C27.516 40.6681 27.2428 40.5875 27.0771 40.4218C26.9114 40.2561 26.8308 40.0053 26.8308 39.6695V32.9616ZM30.1897 39.5038C30.96 39.5038 31.5153 39.2799 31.8602 38.8277C32.205 38.3799 32.3752 37.6993 32.3752 36.7947V35.8365C32.3752 34.9319 32.205 34.2513 31.8602 33.8035C31.5153 33.3557 30.96 33.1273 30.1897 33.1273H28.0669V39.5038H30.1897Z" fill="#1D1D1B" stroke="#1D1D1B" stroke-miterlimit="10"/>
<path d="M35.6804 40.6502C35.5863 40.5562 35.537 40.4173 35.537 40.2337V32.4154C35.537 32.2228 35.5863 32.084 35.6804 31.9944C35.7744 31.9049 35.9311 31.8601 36.1416 31.8601C36.3566 31.8601 36.5089 31.9049 36.6074 31.9944C36.7059 32.084 36.7507 32.2228 36.7507 32.4154V40.2337C36.7507 40.4173 36.7015 40.5562 36.6074 40.6502C36.5134 40.7442 36.3566 40.789 36.1416 40.789C35.9311 40.789 35.7744 40.7442 35.6804 40.6502Z" fill="#1D1D1B" stroke="#1D1D1B" stroke-miterlimit="10"/>
<path d="M45.972 40.0591C46.0123 40.1531 46.0347 40.2427 46.0347 40.3278C46.0347 40.5562 45.8779 40.6995 45.5599 40.7621C45.5107 40.7756 45.4435 40.7845 45.3539 40.7845C45.2106 40.7845 45.0942 40.7487 45.0135 40.6725C44.9329 40.5964 44.8568 40.48 44.7852 40.3233L44.1268 38.7247H40.3066L39.5453 40.5472C39.4826 40.7129 39.3527 40.7935 39.1557 40.7935C39.0437 40.7935 38.9317 40.7711 38.8153 40.7218C38.5555 40.6099 38.4257 40.4487 38.4257 40.2292C38.4257 40.1352 38.4436 40.0457 38.4749 39.9695L41.6368 32.2855C41.6995 32.1288 41.7711 32.0168 41.8562 31.9541C41.9413 31.8914 42.0712 31.8601 42.2413 31.8601C42.4115 31.8601 42.5414 31.8914 42.6265 31.9541C42.7116 32.0168 42.7877 32.1243 42.846 32.2855L45.972 40.0591ZM40.7769 37.5784H43.6521L42.9534 35.8678C42.7429 35.3528 42.5101 34.7439 42.2638 34.0364H42.2324C42.1204 34.3453 41.9502 34.7797 41.7174 35.3439C41.5785 35.6529 41.5024 35.8275 41.489 35.8678L40.7769 37.5784Z" fill="#1D1D1B" stroke="#1D1D1B" stroke-miterlimit="10"/>
<path d="M54.2304 39.9248C54.2841 40.0367 54.311 40.1352 54.311 40.2248C54.311 40.4173 54.1901 40.5696 53.9527 40.6905C53.8004 40.7577 53.684 40.7935 53.6034 40.7935C53.4108 40.7935 53.2585 40.6815 53.1376 40.4621L51.4671 37.1754H48.9233V40.2248C48.9233 40.4084 48.8741 40.5472 48.7755 40.6412C48.677 40.7353 48.5203 40.78 48.3053 40.78C47.9022 40.78 47.6962 40.6278 47.6962 40.3278V32.7288C47.6962 32.4422 47.7544 32.2407 47.8709 32.1333C47.9873 32.0258 48.1844 31.9676 48.4576 31.9676H51.5164C52.0717 31.9676 52.5375 32.0661 52.9048 32.2631C53.2765 32.4602 53.5541 32.7243 53.7333 33.0557C53.9124 33.387 54.0064 33.7632 54.0064 34.1751V34.9767C54.0064 35.4245 53.899 35.823 53.6885 36.1768C53.4735 36.5305 53.1555 36.7947 52.7301 36.9649L54.2304 39.9248ZM48.9368 33.1273V36.0111H51.5209C51.8836 36.0111 52.1837 35.9081 52.4211 35.7021C52.6584 35.4961 52.7749 35.1514 52.7749 34.6633V34.4797C52.7749 33.9916 52.6584 33.6468 52.4211 33.4408C52.1837 33.2348 51.8836 33.1318 51.5209 33.1318H48.9368V33.1273Z" fill="#1D1D1B" stroke="#1D1D1B" stroke-miterlimit="10"/>
<path d="M63.1919 32.4288C63.1919 32.5318 63.1561 32.6303 63.0889 32.7288L60.048 37.2067L60.039 37.2291V40.2248C60.039 40.4084 59.9898 40.5472 59.8912 40.6412C59.7927 40.7353 59.6404 40.78 59.4344 40.78C59.2195 40.78 59.0672 40.7353 58.9642 40.6412C58.8657 40.5472 58.8164 40.4084 58.8164 40.2248V37.2067L55.7755 32.7288C55.7083 32.6348 55.6725 32.5318 55.6725 32.4288C55.6725 32.2586 55.7665 32.1109 55.9591 31.9855C56.0979 31.9049 56.2323 31.8601 56.3711 31.8601C56.5413 31.8601 56.6667 31.9183 56.7428 32.0348L59.412 36.0111H59.4434L62.1215 32.0348C62.1977 31.9183 62.3231 31.8601 62.4933 31.8601C62.6366 31.8601 62.7754 31.9004 62.9053 31.9855C63.0979 32.1064 63.1919 32.2542 63.1919 32.4288Z" fill="#1D1D1B" stroke="#1D1D1B" stroke-miterlimit="10"/>
<path d="M64.2668 73.4372H26.1993C19.6696 73.4372 14.3312 68.0951 14.3312 61.5708C14.3312 55.0466 19.6696 49.7045 26.1993 49.7045H64.2668C70.792 49.7045 76.1348 55.0466 76.1348 61.5708C76.1348 68.0951 70.792 73.4372 64.2668 73.4372Z" fill="#535BB4" stroke="#1D1D1B" stroke-width="2" stroke-miterlimit="10"/>
<path d="M25.4424 65.4845L26.8576 63.7785C27.5787 64.4054 28.5371 64.8352 29.3567 64.8352C30.2748 64.8352 30.7047 64.4859 30.7047 63.9307C30.7047 63.3351 30.1359 63.1381 29.2447 62.7664L27.9235 62.2112C26.8397 61.7813 25.8276 60.8768 25.8276 59.3767C25.8276 57.6392 27.3816 56.2511 29.5761 56.2511C30.7719 56.2511 32.0348 56.7079 32.935 57.6124L31.6989 59.1662C31.0182 58.6513 30.3778 58.3736 29.5761 58.3736C28.8103 58.3736 28.3535 58.6781 28.3535 59.2199C28.3535 59.8021 28.9939 60.026 29.9075 60.3842L31.1973 60.8992C32.4737 61.4141 33.2395 62.2738 33.2395 63.7336C33.2395 65.4531 31.7975 66.9667 29.294 66.9667C27.9549 66.9712 26.5128 66.4696 25.4424 65.4845Z" fill="white"/>
<path d="M35.1743 56.4347H37.6598V60.3797H41.0635V56.4347H43.5356V66.7786H41.0635V62.5291H37.6598V66.7786H35.1743V56.4347Z" fill="white"/>
<path d="M45.6541 61.5574C45.6541 58.1677 47.5708 56.2556 50.3878 56.2556C53.2048 56.2556 55.1216 58.1856 55.1216 61.5574C55.1216 64.9472 53.2048 66.9712 50.3878 66.9712C47.5708 66.9712 45.6541 64.9427 45.6541 61.5574ZM52.6002 61.5574C52.6002 59.5603 51.7538 58.3781 50.3923 58.3781C49.0308 58.3781 48.1979 59.5603 48.1979 61.5574C48.1979 63.5545 49.0308 64.8353 50.3923 64.8353C51.7538 64.8353 52.6002 63.5545 52.6002 61.5574Z" fill="white"/>
<path d="M57.2489 56.4347H60.8855C63.1471 56.4347 65.0237 57.2542 65.0237 59.8066C65.0237 62.265 63.1337 63.3486 60.9392 63.3486H59.73V66.7786H57.2444V56.4347H57.2489ZM60.8183 61.3917C62.0275 61.3917 62.6097 60.8231 62.6097 59.8066C62.6097 58.7633 61.9424 58.405 60.7467 58.405H59.7345V61.3917H60.8183Z" fill="white"/>
</svg>
