<svg width="56" height="62" viewBox="0 0 56 62" fill="none" xmlns="http://www.w3.org/2000/svg">
<path d="M10.4038 25.4932L28.1525 2.98959L50.7723 34.6983" stroke="white" stroke-width="3" stroke-miterlimit="10"/>
<path d="M55.5257 32.8653L6.19263 21.6172L0.149061 50.6688L49.4821 61.917L55.5257 32.8653Z" fill="#3274B7"/>
<path d="M16.5085 31.707L15.2778 31.2836L15.3897 30.746L18.224 31.3917L18.1121 31.9293L16.8499 31.7851L16.5085 31.707ZM19.5608 31.698L20.6825 31.9533L20.9091 36.8186L20.0141 38.0169L22.8742 32.4549L23.4737 32.593L20.4845 38.1251L19.4403 37.8878L19.0989 33.1786L19.5924 32.8633L17.2056 37.3802L16.1614 37.143L15.6737 30.818L17.4982 31.2355L17.6388 36.0798L16.7179 37.2691L19.5608 31.698ZM19.7588 32.4488L18.7432 32.0734L18.8551 31.5358L21.5574 32.1515L21.4456 32.6891L20.3382 32.581L19.7588 32.4488ZM22.7938 33.1396L22.048 32.8273L22.1599 32.2897L23.9413 32.6951L23.8295 33.2327L23.0463 33.1967L22.7938 33.1396Z" fill="white"/>
<path d="M26.9878 36.8997C26.9476 37.0919 26.9132 37.2151 26.8444 37.3712L23.3675 36.5784L23.4765 36.0588L24.9367 36.3922C25.3527 36.4883 25.4961 36.3681 25.5936 35.9026C25.7256 35.2749 25.5535 34.9986 25.3297 34.9476C25.0428 34.8815 24.756 35.2179 24.4806 36.5363C24.2539 37.6265 24.6728 38.2001 25.2379 38.3293C25.6711 38.4284 26.0239 38.3172 26.3165 38.128L26.5833 38.5515C26.0555 39.2032 25.3354 39.3834 24.4748 39.1852C23.1724 38.8879 22.3979 37.7977 22.7106 36.296C23.0347 34.7313 24.3974 34.2208 25.5362 34.4821C26.7784 34.7644 27.2173 35.7975 26.9878 36.8997Z" fill="white"/>
<path d="M31.2134 37.8518C31.5892 37.8338 32.2691 37.8067 32.6908 37.7887L32.6076 38.1881C32.1658 38.2122 31.6896 38.2272 31.4114 38.2963C31.1446 38.3593 30.7602 38.5755 30.6598 39.0681C30.568 39.5126 30.72 39.7769 30.9725 39.8339C31.0843 39.861 31.2192 39.8339 31.42 39.7348L31.9048 39.5036L31.9593 39.6297L31.4515 40.0081C30.9782 40.3565 30.6569 40.5908 29.9885 40.4376C29.3029 40.2814 28.9472 39.7528 29.1021 39.005C29.2512 38.3113 29.7246 37.9238 31.2134 37.8518ZM31.3511 39.8579L31.8417 37.5004C32.0023 36.7255 31.9392 36.4552 31.3942 36.3321C31.1761 36.281 30.9638 36.263 30.545 36.263L31.3196 36.0378L31.1991 36.6114C31.0471 37.3472 30.6483 37.5544 30.2754 37.4673C29.9369 37.3893 29.736 37.173 29.716 36.8246C29.8795 36.0408 30.7143 35.6594 32.1142 35.9807C33.3133 36.254 33.649 36.8727 33.3908 38.1191L32.9576 40.2033C32.9375 40.2934 32.9777 40.3715 33.0724 40.3925C33.1412 40.4076 33.2101 40.3865 33.3478 40.2454L33.5686 40.4496C33.2445 40.9572 32.8601 41.0983 32.2433 40.9572C31.6093 40.813 31.3425 40.4256 31.3511 39.8579Z" fill="white"/>
<path d="M33.7753 40.6688L34.5957 40.6658L35.7948 40.9391L36.5378 41.2995L36.4403 41.762L33.6777 41.1313L33.7753 40.6688ZM34.5039 39.3174L34.6244 38.7437C34.7277 38.2422 34.7506 38.095 34.808 37.7286L34.3548 37.5394L34.4322 37.167L36.4833 36.9778L36.6182 37.1129L36.4575 38.2391L36.1534 39.6958C36.0358 40.2604 35.8494 41.1974 35.7834 41.6119L34.0794 41.2244C34.1826 40.816 34.3863 39.882 34.5039 39.3174ZM35.6457 38.3293L36.3571 38.4915L36.2137 38.7918C36.5723 37.5965 37.3267 37.167 37.846 37.2871C38.2705 37.3832 38.5402 37.7136 38.4857 38.2812C38.3566 38.7677 38.0124 38.984 37.6652 38.9029C37.3784 38.8368 37.1919 38.6326 37.0399 38.2362L36.862 37.7767L37.1374 38.068C36.8649 38.2362 36.4518 38.6536 36.2711 39.1191L35.5338 38.8548L35.6457 38.3293Z" fill="white"/>
<path d="M42.5879 40.4556C42.5477 40.6478 42.5133 40.7709 42.4445 40.9271L38.9676 40.1342L39.0766 39.6147L40.5368 39.948C40.9528 40.0441 41.0962 39.924 41.1937 39.4585C41.3257 38.8308 41.1536 38.5545 40.9298 38.5034C40.6429 38.4374 40.3561 38.7738 40.0807 40.0922C39.854 41.1854 40.2729 41.756 40.8351 41.8851C41.2712 41.9843 41.6212 41.8732 41.9138 41.684L42.1806 42.1074C41.6527 42.7591 40.9327 42.9393 40.0721 42.7411C38.7697 42.4438 37.9951 41.3536 38.3049 39.852C38.6291 38.2872 39.9917 37.7767 41.1306 38.038C42.3756 38.3203 42.8145 39.3534 42.5879 40.4556Z" fill="white"/>
<path d="M12.1968 43.3297C12.7476 40.6808 14.4917 39.5095 16.5974 39.9871C18.703 40.4676 19.8189 42.3026 19.271 44.9425C18.7202 47.5914 16.9588 48.8498 14.8532 48.3722C12.7476 47.8917 11.646 45.9786 12.1968 43.3297ZM17.3834 44.513C17.7076 42.9483 17.2686 41.8821 16.2503 41.6509C15.2319 41.4196 14.42 42.2005 14.093 43.7652C13.766 45.3299 14.1819 46.4681 15.1974 46.7024C16.2158 46.9307 17.0564 46.0747 17.3834 44.513Z" fill="white"/>
<path d="M21.6893 41.2965L24.406 41.9152C26.0956 42.2996 27.3636 43.2607 26.9476 45.2579C26.5489 47.18 24.9596 47.7055 23.3216 47.3301L22.4179 47.1259L21.8614 49.8078L20.0054 49.3844L21.6893 41.2965ZM23.5482 45.7804C24.4519 45.9877 24.9797 45.6392 25.1432 44.8464C25.3125 44.0325 24.8736 43.6361 23.9814 43.4318L23.2241 43.2607L22.7392 45.5942L23.5482 45.7804Z" fill="white"/>
<path d="M28.9702 42.9573L33.8671 44.0745L33.5314 45.6933L30.4935 44.9995L30.1808 46.4982L32.7626 47.0869L32.4241 48.7146L29.8423 48.126L29.4866 49.8408L32.6393 50.5586L32.3008 52.1864L27.292 51.0452L28.9702 42.9573Z" fill="white"/>
<path d="M35.6599 44.483L37.5475 44.9125L38.6606 49.2252L39.045 51.1894L39.0967 51.2013C39.1827 50.3214 39.2688 49.1261 39.4696 48.159L40.0261 45.4771L41.7904 45.8795L40.1064 53.9704L38.2188 53.5409L37.1201 49.2072L36.73 47.264L36.6783 47.252C36.5751 48.171 36.5005 49.3153 36.2968 50.2913L35.7374 52.9733L33.9731 52.5709L35.6599 44.483Z" fill="white"/>
<path d="M5.75073 24.4331L55.0839 35.6804" stroke="white" stroke-width="2" stroke-miterlimit="10"/>
<path d="M0.744873 48.4954L50.0781 59.7427" stroke="white" stroke-width="2" stroke-miterlimit="10"/>
<path d="M28.0894 5.37123C29.3569 5.37123 30.3844 4.29554 30.3844 2.96861C30.3844 1.64167 29.3569 0.565979 28.0894 0.565979C26.8219 0.565979 25.7944 1.64167 25.7944 2.96861C25.7944 4.29554 26.8219 5.37123 28.0894 5.37123Z" fill="white"/>
</svg>
