<svg width="55" height="52" viewBox="0 0 55 52" fill="none" xmlns="http://www.w3.org/2000/svg">
<path d="M46.2191 1.8819L2.69922 9.84163L9.36423 49.7819L52.8841 41.8221L46.2191 1.8819Z" fill="#2DBC4B" stroke="white" stroke-width="3" stroke-miterlimit="10"/>
<path d="M17.6005 25.0174C17.4226 25.0505 16.2809 25.2337 16.1001 25.2667L17.1988 31.8559L14.4305 32.3635L11.7024 16.0046L16.0542 15.2087C18.7107 14.7222 20.3257 16.5482 20.7618 19.164C21.3298 22.5518 19.6975 24.633 17.6005 25.0174ZM16.2436 22.6869C18.0508 22.3565 18.5271 22.0292 18.1283 19.6446C17.9103 18.3351 17.4484 17.359 16.3325 17.5633L14.858 17.8336L15.6842 22.789L16.2436 22.6869Z" fill="white"/>
<path d="M31.2556 17.2449L32.426 24.2576C32.8448 26.7593 32.1334 29.1289 29.7237 29.5674L24.6776 30.4894L21.9495 14.1305L26.9955 13.2085C28.5819 12.9172 30.088 13.8242 30.7076 15.3228C30.9429 15.9295 31.1437 16.5692 31.2556 17.2449ZM28.754 27.336C29.87 27.1317 29.9876 26.0506 29.7696 24.7411L28.5991 17.7315C28.3811 16.422 27.9192 15.446 26.8033 15.6502L25.128 15.9565L27.0787 27.6423L28.754 27.336Z" fill="white"/>
<path d="M36.0233 13.9653L36.6945 17.9837L39.5059 17.4702L39.896 19.8068L37.0847 20.3203L38.3641 27.9847L35.5729 28.4952L32.8447 12.1364L39.5632 10.908L39.9534 13.2445L36.0233 13.9653Z" fill="white"/>
<path d="M17.5718 37.5532L17.9705 39.9498C18.114 40.8027 17.8701 41.6136 17.0468 41.7638L15.3227 42.0791L14.3904 36.49L16.1145 36.1747C16.6567 36.0756 17.1702 36.3849 17.3825 36.8984C17.4657 37.1027 17.5345 37.3219 17.5718 37.5532ZM16.7169 41.0009C17.0985 40.9319 17.1386 40.5625 17.064 40.115L16.6653 37.7183C16.5907 37.2708 16.4329 36.9375 16.0514 37.0065L15.4805 37.1117L16.146 41.103L16.7169 41.0009Z" fill="white"/>
<path d="M21.0801 36.475L21.6194 39.7005C21.7141 40.2771 21.4014 41.0399 20.449 41.2141C19.3962 41.4063 18.9085 40.7877 18.811 40.2141L18.2716 36.9885C18.177 36.4149 18.438 35.6731 19.4908 35.4809C20.4461 35.3067 20.9854 35.9013 21.0801 36.475ZM20.1277 36.6582C20.099 36.49 19.8953 36.2137 19.6228 36.2647C19.2872 36.3278 19.2011 36.6552 19.2269 36.8053L19.7634 40.0248C19.7949 40.208 19.9814 40.4784 20.317 40.4183C20.5924 40.3672 20.6928 40.0278 20.6641 39.8627L20.1277 36.6582Z" fill="white"/>
<path d="M26.614 34.2525L26.4706 40.0399L25.5411 40.2111L24.3592 37.0276L24.276 40.4423L23.3465 40.6135L21.3298 35.2226L22.2679 35.0514L23.576 39.0818L23.599 39.0788L23.533 34.8202L24.4625 34.649L25.7706 38.6794L25.7935 38.6764L25.7276 34.4177L26.614 34.2525Z" fill="white"/>
<path d="M30.1483 33.6068L31.0806 39.196L30.1282 39.3701L28.6565 36.3398L28.6422 36.3428L29.1758 39.5443L28.2233 39.7185L27.291 34.1294L28.2979 33.9462L29.7007 36.8834L29.7151 36.8804L29.1987 33.781L30.1483 33.6068Z" fill="white"/>
<path d="M35.5242 37.5622L35.6562 38.361L33.4502 38.7635L32.5178 33.1743L33.4702 33.0002L34.2706 37.7934L35.5242 37.5622Z" fill="white"/>
<path d="M37.2827 38.0637L36.3303 38.2379L35.3979 32.6488L36.3504 32.4746L37.2827 38.0637Z" fill="white"/>
<path d="M40.0596 31.7958L40.992 37.3849L40.0395 37.5592L38.5679 34.5288L38.5536 34.5318L39.0871 37.7333L38.1347 37.9075L37.2024 32.3184L38.2093 32.1352L39.6121 35.0724L39.6265 35.0694L39.1101 31.9701L40.0596 31.7958Z" fill="white"/>
<path d="M42.5037 34.8953L42.4578 34.9042L42.4435 34.9643L42.7934 37.0576L41.841 37.2318L40.9087 31.6427L41.8611 31.4685L42.1939 33.4657L42.2082 33.4627L42.8135 31.2943L43.7143 31.1291L42.8422 33.8651L44.9364 36.6672L43.8376 36.8684L42.5037 34.8953Z" fill="white"/>
</svg>
