<svg width="77" height="133" viewBox="0 0 77 133" fill="none" xmlns="http://www.w3.org/2000/svg">
<path d="M64.2757 132.093H12.3025C5.50858 132.093 0 126.585 0 119.792V12.3007C0 5.50778 5.50858 0 12.3025 0H64.2757C71.0697 0 76.5782 5.50778 76.5782 12.3007V119.792C76.5782 126.585 71.0697 132.093 64.2757 132.093Z" fill="white"/>
<path d="M57.4415 121.346H19.3741C12.8489 121.346 7.50598 116.004 7.50598 109.48C7.50598 102.955 12.8444 97.6134 19.3741 97.6134H57.4415C63.9667 97.6134 69.3096 102.955 69.3096 109.48C69.3096 116.004 63.9712 121.346 57.4415 121.346Z" fill="#535BB4" stroke="#1D1D1B" stroke-width="2" stroke-miterlimit="10"/>
<path d="M18.559 113.393L19.9742 111.687C20.6952 112.314 21.6536 112.744 22.4732 112.744C23.3913 112.744 23.8212 112.395 23.8212 111.84C23.8212 111.244 23.2525 111.047 22.3612 110.675L21.0401 110.12C19.9563 109.69 18.9441 108.786 18.9441 107.286C18.9441 105.548 20.4982 104.16 22.6926 104.16C23.8884 104.16 25.1513 104.617 26.0515 105.521L24.8155 107.075C24.1347 106.56 23.4943 106.283 22.6926 106.283C21.9268 106.283 21.47 106.587 21.47 107.129C21.47 107.711 22.1104 107.935 23.024 108.293L24.3139 108.808C25.5902 109.323 26.3561 110.183 26.3561 111.643C26.3561 113.362 24.914 114.876 22.4105 114.876C21.0714 114.88 19.6293 114.379 18.559 113.393Z" fill="white"/>
<path d="M28.2908 104.344H30.7764V108.289H34.18V104.344H36.6522V114.688H34.18V110.438H30.7764V114.688H28.2908V104.344Z" fill="white"/>
<path d="M38.775 109.466C38.775 106.077 40.6918 104.165 43.5088 104.165C46.3258 104.165 48.2426 106.094 48.2426 109.466C48.2426 112.856 46.3258 114.88 43.5088 114.88C40.6918 114.88 38.775 112.852 38.775 109.466ZM45.7167 109.466C45.7167 107.469 44.8703 106.287 43.5088 106.287C42.1474 106.287 41.3143 107.469 41.3143 109.466C41.3143 111.463 42.1474 112.744 43.5088 112.744C44.8703 112.744 45.7167 111.463 45.7167 109.466Z" fill="white"/>
<path d="M50.3654 104.344H54.002C56.2637 104.344 58.1402 105.163 58.1402 107.716C58.1402 110.174 56.2502 111.257 54.0557 111.257H52.8465V114.688H50.361V104.344H50.3654ZM53.9348 109.301C55.144 109.301 55.7262 108.732 55.7262 107.716C55.7262 106.672 55.0589 106.314 53.8676 106.314H52.8555V109.301H53.9348Z" fill="white"/>
<path d="M52.5554 13.9396C42.9087 10.4737 38.7123 19.8817 37.8569 22.1386C37.006 19.8817 32.8096 10.4737 23.1629 13.9396C14.0088 17.2264 15.0254 29.0659 15.9659 32.5631C18.5455 42.1368 30.2882 52.4628 36.8627 57.2094C37.2747 57.5049 37.8435 57.5408 37.8435 57.5408C37.8435 57.5408 38.3048 57.59 38.8243 57.2094C45.4435 52.3778 57.2042 41.9935 59.7435 32.5631C60.6929 29.0659 61.7095 17.2264 52.5554 13.9396Z" fill="#E61F1A" stroke="#1D1D1B" stroke-width="2" stroke-miterlimit="10"/>
<path d="M10.847 66.1607C10.8201 66.5189 11.0127 66.7428 11.886 67.1235C14.7119 68.3997 14.6537 69.1475 14.5014 71.0864L14.4522 71.7088C14.3133 73.4731 12.7638 73.988 11.0037 73.8537C9.23918 73.7149 7.84636 72.9716 7.9852 71.2073L8.10611 69.649L10.5872 69.8415L10.4976 71.0192C10.4618 71.467 10.7798 71.7357 11.2276 71.7715C11.6755 71.8073 12.0293 71.5924 12.0651 71.1401L12.083 70.8983C12.186 69.5952 12.1323 69.5326 10.1304 68.5788C8.57636 67.8444 8.36587 66.7921 8.42857 65.9771L8.49126 65.18C8.6301 63.4157 10.1214 62.8919 11.886 63.0307C13.6505 63.1695 15.0433 63.9128 14.9045 65.6771L14.8194 66.7831L12.3965 66.595L12.4548 65.8696C12.4906 65.4218 12.1726 65.1532 11.7248 65.1174C11.2769 65.0816 10.9276 65.2427 10.8918 65.6905L10.847 66.1607Z" fill="black"/>
<path d="M21.376 59.8648V62.0052H18.7157V71.9551H16.1719V62.0052H13.5565V59.8648H21.376Z" fill="black"/>
<path d="M46.0974 64.9338V66.2995H44.4001V72.6581H42.7744V66.2995H41.1039V64.9338H46.0974Z" fill="black"/>
<path d="M21.6581 73.7821H19.2308L20.6773 63.8636H24.8424L26.2889 73.7821H23.8616L23.6287 72.0357H21.8821L21.6581 73.7821ZM22.1418 69.9535H23.3555L22.7554 65.6816L22.1418 69.9535Z" fill="black"/>
<path d="M27.8206 62.4083L28.9536 66.4921L29.9927 62.4083H32.42L30.1987 69.0938V72.8059H27.6549V69.0713L25.5052 62.4083H27.8206Z" fill="black"/>
<path d="M36.9209 71.6775L37.7808 67.2936L39.2543 67.3966L37.9331 73.9612L36.0163 73.8269L35.7162 70.4595L34.9773 73.7552L33.0605 73.6209L32.6843 66.9354L34.1577 67.0384L34.3458 71.4939L35.2639 67.1145L36.5985 67.2085L36.9209 71.6775Z" fill="black"/>
<path d="M41.5741 73.8671H39.9484V67.2265H41.5741V73.8671Z" fill="black"/>
<path d="M46.9707 67.0787L47.1902 69.6176L48.1934 69.5281L47.9739 66.9891L49.519 66.8548L50.0968 73.4731L48.5517 73.6074L48.3098 70.8625L47.3066 70.952L47.5485 73.697L46.0034 73.8313L45.4257 67.213L46.9707 67.0787Z" fill="black"/>
<path d="M52.5017 63.3845H55.6591L56.9713 70.0789L58.3238 63.38H61.3781L61.3826 73.7776H59.0672L59.0627 68.1086L57.8715 73.7776H56.08L54.8171 68.1131L54.8216 73.7821H52.5062L52.5017 63.3845Z" fill="black"/>
<path d="M62.2828 63.8188L68.5661 63.165L68.7901 65.292L64.9251 65.695L65.1311 67.6518L68.8841 67.2623L69.0946 69.2773L65.3416 69.6669L65.5611 71.7849L69.5425 71.3685L69.7664 73.4955L63.3711 74.1627L62.2828 63.8188Z" fill="black"/>
<path d="M47.6202 78.157L48.7532 82.2408L49.7922 78.157H52.2196L49.9982 84.8424V91.3981H47.4544V84.8201L45.3047 78.157H47.6202Z" fill="black"/>
<path d="M19.4771 88.3397L17.0632 88.0576L19.701 77.8972L23.8392 78.3764L24.0765 88.8725L21.6626 88.5904L21.6357 86.8306L19.9026 86.6291L19.4771 88.3397ZM20.4042 84.5962L21.6089 84.735L21.5596 79.9437L20.4042 84.5962Z" fill="black"/>
<path d="M31.6945 89.9965V92.1951H25.3798V78.5644H27.9236V89.9965H31.6945Z" fill="black"/>
<path d="M36.0655 85.1156L36.9209 78.1749H39.2363L37.9062 88.5726H34.9011L34.0547 83.3468L33.2664 88.5726H30.2569L28.9268 78.1749H31.2422L32.0304 85.1156L32.9798 78.1749H35.0758L36.0655 85.1156Z" fill="black"/>
<path d="M41.274 90.6816H38.8467L40.2932 80.284H44.4583L45.9048 90.6816H43.4775L43.2446 88.9352H41.498L41.274 90.6816ZM41.7577 86.8575H42.9714L42.3713 82.102L41.7577 86.8575Z" fill="black"/>
<path d="M54.9559 81.2109C54.9828 81.5691 55.2067 81.7617 56.1293 82.008C59.112 82.8453 59.1658 83.5931 59.3091 85.532L59.3538 86.1545C59.4837 87.9188 58.0282 88.6621 56.2637 88.792C54.4991 88.9218 53.0078 88.3934 52.8824 86.6291L52.7704 85.0708L55.2515 84.8872L55.3366 86.0649C55.368 86.5127 55.7218 86.7321 56.1741 86.7008C56.6264 86.6694 56.9399 86.4007 56.9086 85.9529L56.8907 85.7112C56.7966 84.4081 56.7339 84.3543 54.6111 83.7095C52.963 83.217 52.6002 82.2095 52.5375 81.39L52.4793 80.5929C52.3494 78.8286 53.7467 78.0898 55.5113 77.9599C57.2758 77.8301 58.7627 78.3584 58.8926 80.1227L58.9732 81.2288L56.5503 81.4079L56.4966 80.6825C56.4652 80.2347 56.1114 80.0153 55.6635 80.0466C55.2157 80.078 54.8932 80.2884 54.9246 80.7407L54.9559 81.2109Z" fill="black"/>
</svg>
