<svg width="50" height="89" viewBox="0 0 50 89" fill="none" xmlns="http://www.w3.org/2000/svg">
<path d="M41.9876 88.5969H8.69626C4.34443 88.5969 0.815918 84.9029 0.815918 80.3469V8.25301C0.815918 3.69702 4.34443 0.00299072 8.69626 0.00299072H41.9876C46.3395 0.00299072 49.868 3.69702 49.868 8.25301V80.3469C49.868 84.9029 46.3395 88.5969 41.9876 88.5969Z" fill="white"/>
<path d="M37.6099 81.389H13.2259C9.04615 81.389 5.62378 77.8061 5.62378 73.4303C5.62378 69.0545 9.04328 65.4716 13.2259 65.4716H37.6099C41.7896 65.4716 45.212 69.0545 45.212 73.4303C45.212 77.8061 41.7925 81.389 37.6099 81.389Z" fill="#535BB4" stroke="#1D1D1B" stroke-width="2" stroke-miterlimit="10"/>
<path d="M12.7039 76.0552L13.6104 74.911C14.0722 75.3314 14.6861 75.6197 15.2111 75.6197C15.7992 75.6197 16.0746 75.3855 16.0746 75.0131C16.0746 74.6136 15.7103 74.4815 15.1394 74.2322L14.2931 73.8598C13.5989 73.5715 12.9506 72.9648 12.9506 71.9587C12.9506 70.7934 13.946 69.8624 15.3517 69.8624C16.1176 69.8624 16.9266 70.1688 17.5032 70.7754L16.7114 71.8176C16.2754 71.4722 15.8652 71.286 15.3517 71.286C14.8611 71.286 14.5685 71.4902 14.5685 71.8536C14.5685 72.244 14.9787 72.3942 15.564 72.6345L16.3901 72.9798C17.2077 73.3252 17.6983 73.9018 17.6983 74.8809C17.6983 76.0342 16.7746 77.0493 15.1709 77.0493C14.3132 77.0523 13.3895 76.7159 12.7039 76.0552Z" fill="white"/>
<path d="M18.9375 69.9856H20.5296V72.6314H22.7099V69.9856H24.2934V76.9231H22.7099V74.073H20.5296V76.9231H18.9375V69.9856Z" fill="white"/>
<path d="M25.6533 73.4213C25.6533 71.1478 26.8811 69.8654 28.6855 69.8654C30.49 69.8654 31.7178 71.1599 31.7178 73.4213C31.7178 75.6948 30.49 77.0523 28.6855 77.0523C26.8811 77.0523 25.6533 75.6918 25.6533 73.4213ZM30.0998 73.4213C30.0998 72.0819 29.5576 71.289 28.6855 71.289C27.8135 71.289 27.2799 72.0819 27.2799 73.4213C27.2799 74.7608 27.8135 75.6198 28.6855 75.6198C29.5576 75.6198 30.0998 74.7608 30.0998 73.4213Z" fill="white"/>
<path d="M33.0773 69.9856H35.4067C36.8554 69.9856 38.0574 70.5352 38.0574 72.247C38.0574 73.8959 36.8468 74.6226 35.4411 74.6226H34.6666V76.9231H33.0745V69.9856H33.0773ZM35.3637 73.3102C36.1382 73.3102 36.5112 72.9288 36.5112 72.247C36.5112 71.5473 36.0837 71.307 35.3207 71.307H34.6723V73.3102H35.3637Z" fill="white"/>
<path d="M34.4802 9.35221C28.301 7.02766 25.613 13.3375 25.0651 14.8512C24.52 13.3375 21.8321 7.02766 15.6529 9.35221C9.78922 11.5566 10.4404 19.4973 11.0428 21.8429C12.6952 28.2639 20.217 35.1895 24.4282 38.3729C24.6922 38.5712 25.0565 38.5952 25.0565 38.5952C25.0565 38.5952 25.352 38.6282 25.6847 38.3729C29.9247 35.1324 37.4579 28.1678 39.0845 21.8429C39.6926 19.4973 40.3438 11.5566 34.4802 9.35221Z" fill="#E61F1A" stroke="#1D1D1B" stroke-width="2" stroke-miterlimit="10"/>
<path d="M7.76403 44.3765C7.74681 44.6168 7.87017 44.7669 8.42956 45.0222C10.2397 45.8782 10.2024 46.3797 10.1049 47.6801L10.0733 48.0976C9.9844 49.2809 8.99183 49.6262 7.86443 49.5361C6.73416 49.443 5.84199 48.9445 5.93092 47.7612L6.00837 46.7161L7.59764 46.8452L7.54026 47.6351C7.51731 47.9354 7.72099 48.1156 8.00786 48.1396C8.29473 48.1637 8.52136 48.0195 8.54431 47.7162L8.55579 47.554C8.62177 46.68 8.58734 46.638 7.30503 45.9983C6.30959 45.5057 6.17476 44.8 6.21492 44.2534L6.25508 43.7188C6.34401 42.5355 7.29929 42.1841 8.42956 42.2772C9.55984 42.3703 10.452 42.8689 10.3631 44.0522L10.3086 44.794L8.7566 44.6678L8.79389 44.1813C8.81684 43.881 8.61316 43.7008 8.32629 43.6768C8.03942 43.6527 7.81566 43.7608 7.79271 44.0611L7.76403 44.3765Z" fill="black"/>
<path d="M14.5083 40.1539V41.5894H12.8043V48.2627H11.1748V41.5894H9.49951V40.1539H14.5083Z" fill="black"/>
<path d="M30.3436 43.5536V44.4696H29.2564V48.7343H28.2151V44.4696H27.145V43.5536H30.3436Z" fill="black"/>
<path d="M14.6891 49.4881H13.1343L14.0609 42.8358H16.7288L17.6554 49.4881H16.1005L15.9514 48.3168H14.8326L14.6891 49.4881ZM14.9989 46.9203H15.7764L15.392 44.0552L14.9989 46.9203Z" fill="black"/>
<path d="M18.6364 41.8598L19.3622 44.5988L20.0278 41.8598H21.5826L20.1597 46.3437V48.8334H18.5303V46.3287L17.1533 41.8598H18.6364Z" fill="black"/>
<path d="M24.4657 48.0766L25.0165 45.1364L25.9603 45.2054L25.1141 49.6083L23.8863 49.5181L23.6941 47.2597L23.2207 49.4701L21.9929 49.38L21.752 44.8961L22.6958 44.9652L22.8162 47.9534L23.4043 45.0162L24.2592 45.0793L24.4657 48.0766Z" fill="black"/>
<path d="M27.4461 49.5452H26.4048V45.0913H27.4461V49.5452Z" fill="black"/>
<path d="M30.903 44.9922L31.0436 46.695L31.6862 46.635L31.5456 44.9321L32.5353 44.842L32.9054 49.2809L31.9157 49.371L31.7608 47.53L31.1182 47.59L31.2731 49.431L30.2834 49.5211L29.9133 45.0823L30.903 44.9922Z" fill="black"/>
<path d="M34.4458 42.5145H36.4682L37.3088 47.0044L38.1751 42.5115H40.1316L40.1344 49.4851H38.6513L38.6485 45.683L37.8854 49.4851H36.7379L35.9289 45.686L35.9318 49.4881H34.4487L34.4458 42.5145Z" fill="black"/>
<path d="M40.7112 42.8058L44.736 42.3673L44.8794 43.7939L42.4037 44.0642L42.5357 45.3766L44.9397 45.1153L45.0745 46.4668L42.6705 46.7281L42.8111 48.1486L45.3614 47.8693L45.5048 49.2959L41.4083 49.7434L40.7112 42.8058Z" fill="black"/>
<path d="M31.3191 52.4223L32.0448 55.1613L32.7104 52.4223H34.2652L32.8423 56.9062V61.303H31.2129V56.8912L29.8359 52.4223H31.3191Z" fill="black"/>
<path d="M13.2921 59.2518L11.7458 59.0626L13.4355 52.2481L16.0862 52.5695L16.2382 59.6092L14.692 59.42L14.6748 58.2397L13.5646 58.1045L13.2921 59.2518ZM13.8859 56.741L14.6576 56.8341L14.626 53.6206L13.8859 56.741Z" fill="black"/>
<path d="M21.1179 60.363V61.8376H17.073V52.6956H18.7024V60.363H21.1179Z" fill="black"/>
<path d="M23.9177 57.0894L24.4656 52.4343H25.9487L25.0967 59.408H23.1718L22.6296 55.9031L22.1248 59.408H20.197L19.345 52.4343H20.8281L21.333 57.0894L21.9412 52.4343H23.2837L23.9177 57.0894Z" fill="black"/>
<path d="M27.2541 60.8225H25.6992L26.6258 53.8489H29.2937L30.2203 60.8225H28.6655L28.5163 59.6512H27.3975L27.2541 60.8225ZM27.5639 58.2577H28.3413L27.9569 55.0682L27.5639 58.2577Z" fill="black"/>
<path d="M36.018 54.4705C36.0352 54.7108 36.1787 54.84 36.7696 55.0051C38.6802 55.5668 38.7146 56.0683 38.8064 57.3687L38.8351 57.7862C38.9183 58.9695 37.986 59.468 36.8557 59.5551C35.7254 59.6422 34.7701 59.2878 34.6898 58.1045L34.6181 57.0594L36.2074 56.9362L36.2619 57.7261C36.2819 58.0264 36.5086 58.1736 36.7983 58.1526C37.0881 58.1316 37.2889 57.9513 37.2688 57.651L37.2573 57.4889C37.1971 56.6149 37.1569 56.5788 35.7971 56.1464C34.7414 55.816 34.5091 55.1403 34.4689 54.5907L34.4316 54.0561C34.3484 52.8728 35.2435 52.3773 36.3737 52.2902C37.504 52.2031 38.4564 52.5574 38.5396 53.7407L38.5913 54.4826L37.0393 54.6027L37.0049 54.1161C36.9848 53.8158 36.7582 53.6687 36.4713 53.6897C36.1844 53.7107 35.9779 53.8519 35.9979 54.1552L36.018 54.4705Z" fill="black"/>
</svg>
