<svg width="323" height="150" viewBox="0 0 323 150" fill="none" xmlns="http://www.w3.org/2000/svg">
<path d="M161.668 1.75183H138.47V107.968H161.668V1.75183Z" fill="#535BB4" stroke="#1D1D1B" stroke-width="2" stroke-miterlimit="10"/>
<path d="M184.007 1.75183H161.668V107.968H184.007V1.75183Z" fill="white" stroke="#1D1D1B" stroke-width="2" stroke-miterlimit="10"/>
<path d="M207.205 1.75183H184.007V107.968H207.205V1.75183Z" fill="#535BB4" stroke="#1D1D1B" stroke-width="2" stroke-miterlimit="10"/>
<path d="M230.403 1.75183H207.205V107.968H230.403V1.75183Z" fill="white" stroke="#1D1D1B" stroke-width="2" stroke-miterlimit="10"/>
<path d="M252.742 1.75183H230.403V107.968H252.742V1.75183Z" fill="#535BB4" stroke="#1D1D1B" stroke-width="2" stroke-miterlimit="10"/>
<path d="M275.94 1.75183H252.742V107.968H275.94V1.75183Z" fill="white" stroke="#1D1D1B" stroke-width="2" stroke-miterlimit="10"/>
<path d="M298.279 1.75183H275.081V107.968H298.279V1.75183Z" fill="#535BB4" stroke="#1D1D1B" stroke-width="2" stroke-miterlimit="10"/>
<path d="M321.477 1.75183H298.279V107.968H321.477V1.75183Z" fill="white" stroke="#1D1D1B" stroke-width="2" stroke-miterlimit="10"/>
<path d="M115.272 1.75183H92.074V107.968H115.272V1.75183Z" fill="#535BB4" stroke="#1D1D1B" stroke-width="2" stroke-miterlimit="10"/>
<path d="M138.47 1.75183H115.272V107.968H138.47V1.75183Z" fill="white" stroke="#1D1D1B" stroke-width="2" stroke-miterlimit="10"/>
<path d="M69.7351 1.75183H47.3962V107.968H69.7351V1.75183Z" fill="#535BB4" stroke="#1D1D1B" stroke-width="2" stroke-miterlimit="10"/>
<path d="M92.074 1.75183H69.7351V107.968H92.074V1.75183Z" fill="white" stroke="#1D1D1B" stroke-width="2" stroke-miterlimit="10"/>
<path d="M24.1981 1.75183H1V107.968H24.1981V1.75183Z" fill="#535BB4" stroke="#1D1D1B" stroke-width="2" stroke-miterlimit="10"/>
<path d="M47.3961 1.75183H24.198V107.968H47.3961V1.75183Z" fill="white" stroke="#1D1D1B" stroke-width="2" stroke-miterlimit="10"/>
<path d="M1 107.968V136.473C1 143.101 6.16571 148.475 12.537 148.475C18.9084 148.475 24.0741 143.101 24.0741 136.473H24.1981V107.968H1Z" fill="#535BB4" stroke="#1D1D1B" stroke-width="2" stroke-miterlimit="10"/>
<path d="M24.198 107.968V136.473C24.198 143.101 29.3637 148.475 35.735 148.475C42.1064 148.475 47.2721 143.101 47.2721 136.473H47.3961V107.968H24.198Z" fill="white" stroke="#1D1D1B" stroke-width="2" stroke-miterlimit="10"/>
<path d="M47.3962 107.968V136.473C47.3962 143.101 52.3706 148.475 58.506 148.475C64.6413 148.475 69.6157 143.101 69.6157 136.473H69.7351V107.968H47.3962Z" fill="#535BB4" stroke="#1D1D1B" stroke-width="2" stroke-miterlimit="10"/>
<path d="M69.7351 107.968V136.473C69.7351 143.101 74.7095 148.475 80.8448 148.475C86.9802 148.475 91.9546 143.101 91.9546 136.473H92.074V107.968H69.7351Z" fill="white" stroke="#1D1D1B" stroke-width="2" stroke-miterlimit="10"/>
<path d="M92.074 107.968V136.473C92.074 143.101 97.2397 148.475 103.611 148.475C109.982 148.475 115.148 143.101 115.148 136.473H115.272V107.968H92.074Z" fill="#535BB4" stroke="#1D1D1B" stroke-width="2" stroke-miterlimit="10"/>
<path d="M115.272 107.968V136.473C115.272 143.101 120.438 148.475 126.809 148.475C133.18 148.475 138.346 143.101 138.346 136.473H138.47V107.968H115.272Z" fill="white" stroke="#1D1D1B" stroke-width="2" stroke-miterlimit="10"/>
<path d="M138.47 107.968V136.473C138.47 143.101 143.445 148.475 149.58 148.475C155.715 148.475 160.69 143.101 160.69 136.473H160.809V107.968H138.47Z" fill="#535BB4" stroke="#1D1D1B" stroke-width="2" stroke-miterlimit="10"/>
<path d="M160.809 107.968V136.473C160.809 143.101 165.975 148.475 172.346 148.475C178.717 148.475 183.883 143.101 183.883 136.473H184.007V107.968H160.809Z" fill="white" stroke="#1D1D1B" stroke-width="2" stroke-miterlimit="10"/>
<path d="M184.007 107.968V136.473C184.007 143.101 189.173 148.475 195.544 148.475C201.915 148.475 207.081 143.101 207.081 136.473H207.205V107.968H184.007Z" fill="#535BB4" stroke="#1D1D1B" stroke-width="2" stroke-miterlimit="10"/>
<path d="M207.205 107.968V136.473C207.205 143.101 212.371 148.475 218.742 148.475C225.114 148.475 230.279 143.101 230.279 136.473H230.403V107.968H207.205Z" fill="white" stroke="#1D1D1B" stroke-width="2" stroke-miterlimit="10"/>
<path d="M230.403 107.968V136.473C230.403 143.101 235.378 148.475 241.513 148.475C247.648 148.475 252.623 143.101 252.623 136.473H252.742V107.968H230.403Z" fill="#535BB4" stroke="#1D1D1B" stroke-width="2" stroke-miterlimit="10"/>
<path d="M251.883 107.968V136.473C251.883 143.101 257.049 148.475 263.42 148.475C269.791 148.475 274.957 143.101 274.957 136.473H275.081V107.968H251.883Z" fill="white" stroke="#1D1D1B" stroke-width="2" stroke-miterlimit="10"/>
<path d="M275.081 107.968V136.473C275.081 143.101 280.247 148.475 286.618 148.475C292.989 148.475 298.155 143.101 298.155 136.473H298.279V107.968H275.081Z" fill="#535BB4" stroke="#1D1D1B" stroke-width="2" stroke-miterlimit="10"/>
<path d="M298.279 107.968V136.473C298.279 143.101 303.445 148.475 309.816 148.475C316.188 148.475 321.353 143.101 321.353 136.473H321.477V107.968H298.279Z" fill="white" stroke="#1D1D1B" stroke-width="2" stroke-miterlimit="10"/>
</svg>
