<svg width="871" height="477" viewBox="0 0 871 477" fill="none" xmlns="http://www.w3.org/2000/svg">
<g filter="url(#filter0_d_17_22)">
<path d="M792.611 1H78V389H792.611V1Z" fill="#F071BB" stroke="#1D1D1B" stroke-width="2" stroke-miterlimit="10"/>
<path d="M332.861 66H103.986V301H332.861V66Z" fill="#1D1D1B"/>
<path d="M769.623 66H539.749V301H769.623V66Z" fill="#1D1D1B"/>
<path d="M525.796 14.2895H346.155V388.737H525.796V14.2895Z" fill="#F071BB" stroke="#1D1D1B" stroke-width="2" stroke-miterlimit="10"/>
<path d="M500.417 66.2096H371.058V201.889H500.417V66.2096Z" fill="#1D1D1B"/>
<path d="M500.417 226.966H371.058V362.645H500.417V226.966Z" fill="#1D1D1B"/>
<path d="M78 27.7105L78 388.737H90.0654L90.0654 27.7105H78Z" fill="#F071BB" stroke="#1D1D1B" stroke-width="2" stroke-miterlimit="10"/>
<path d="M783.616 27.7105V388.737H793V27.7105H783.616Z" fill="#F071BB" stroke="#1D1D1B" stroke-width="2" stroke-miterlimit="10"/>
<path d="M333.011 316.971H103.986V376.527H333.011V316.971Z" fill="#F071BB" stroke="#1D1D1B" stroke-width="2" stroke-miterlimit="10"/>
<path d="M103.986 324.024H333.011" stroke="#1D1D1B" stroke-width="2" stroke-miterlimit="10"/>
<path d="M103.986 331.524H333.011" stroke="#1D1D1B" stroke-width="2" stroke-miterlimit="10"/>
<path d="M103.986 339.025H333.011" stroke="#1D1D1B" stroke-width="2" stroke-miterlimit="10"/>
<path d="M103.986 346.525H333.011" stroke="#1D1D1B" stroke-width="2" stroke-miterlimit="10"/>
<path d="M103.986 354.026H333.011" stroke="#1D1D1B" stroke-width="2" stroke-miterlimit="10"/>
<path d="M103.986 361.526H333.011" stroke="#1D1D1B" stroke-width="2" stroke-miterlimit="10"/>
<path d="M103.986 369.026H333.011" stroke="#1D1D1B" stroke-width="2" stroke-miterlimit="10"/>
<path d="M769.623 317H540.748V376.556H769.623V317Z" fill="#F071BB" stroke="#1D1D1B" stroke-width="2" stroke-miterlimit="10"/>
<path d="M540.748 324.053H769.623" stroke="#1D1D1B" stroke-width="2" stroke-miterlimit="10"/>
<path d="M540.748 331.553H769.623" stroke="#1D1D1B" stroke-width="2" stroke-miterlimit="10"/>
<path d="M540.748 339.054H769.623" stroke="#1D1D1B" stroke-width="2" stroke-miterlimit="10"/>
<path d="M540.748 346.554H769.623" stroke="#1D1D1B" stroke-width="2" stroke-miterlimit="10"/>
<path d="M540.748 354.054H769.623" stroke="#1D1D1B" stroke-width="2" stroke-miterlimit="10"/>
<path d="M540.748 361.555H769.623" stroke="#1D1D1B" stroke-width="2" stroke-miterlimit="10"/>
<path d="M540.748 369.055H769.623" stroke="#1D1D1B" stroke-width="2" stroke-miterlimit="10"/>
<path d="M346.301 388.737L302.037 467.921" stroke="#1D1D1B" stroke-width="2" stroke-miterlimit="10"/>
<path d="M77 389L5 468" stroke="#1D1D1B" stroke-width="2" stroke-miterlimit="10"/>
<path d="M526.04 388.737L568.963 467.921" stroke="#1D1D1B" stroke-width="2" stroke-miterlimit="10"/>
<path d="M794 389L866 468" stroke="#1D1D1B" stroke-width="2" stroke-miterlimit="10"/>
</g>
<defs>
<filter id="filter0_d_17_22" x="0.260864" y="0" width="870.478" height="476.674" filterUnits="userSpaceOnUse" color-interpolation-filters="sRGB">
<feFlood flood-opacity="0" result="BackgroundImageFix"/>
<feColorMatrix in="SourceAlpha" type="matrix" values="0 0 0 0 0 0 0 0 0 0 0 0 0 0 0 0 0 0 127 0" result="hardAlpha"/>
<feOffset dy="4"/>
<feGaussianBlur stdDeviation="2"/>
<feComposite in2="hardAlpha" operator="out"/>
<feColorMatrix type="matrix" values="0 0 0 0 0 0 0 0 0 0 0 0 0 0 0 0 0 0 0.25 0"/>
<feBlend mode="normal" in2="BackgroundImageFix" result="effect1_dropShadow_17_22"/>
<feBlend mode="normal" in="SourceGraphic" in2="effect1_dropShadow_17_22" result="shape"/>
</filter>
</defs>
</svg>
