<svg width="87" height="93" viewBox="0 0 87 93" fill="none" xmlns="http://www.w3.org/2000/svg">
<path d="M16.218 38.0495L43.9266 4.4967L79.2398 51.7742" stroke="white" stroke-width="3" stroke-miterlimit="10"/>
<path d="M86.6609 49.0413L9.64398 32.2704L0.20899 75.5862L77.226 92.3571L86.6609 49.0413Z" fill="#3274B7"/>
<path d="M25.7483 47.3142L23.827 46.6829L24.0017 45.8813L28.4264 46.8441L28.2518 47.6456L26.2812 47.4306L25.7483 47.3142ZM30.5135 47.3008L32.2645 47.6814L32.6183 54.9356L31.221 56.7223L35.6861 48.4293L36.6221 48.6352L31.9555 56.8835L30.3253 56.5297L29.7924 49.5084L30.5627 49.0382L26.8366 55.7729L25.2064 55.4192L24.445 45.9888L27.2934 46.6112L27.5128 53.834L26.0752 55.6073L30.5135 47.3008ZM30.8225 48.4203L29.2371 47.8606L29.4117 47.059L33.6305 47.977L33.4558 48.7785L31.7271 48.6173L30.8225 48.4203ZM35.5607 49.4502L34.3963 48.9845L34.571 48.183L37.3521 48.7875L37.1775 49.589L35.9548 49.5353L35.5607 49.4502Z" fill="white"/>
<path d="M42.1083 55.0565C42.0456 55.3431 41.9919 55.5267 41.8844 55.7595L36.4564 54.5774L36.6266 53.8027L38.9062 54.2997C39.5556 54.443 39.7795 54.2639 39.9318 53.5698C40.1378 52.634 39.8691 52.222 39.5198 52.1459C39.0719 52.0473 38.624 52.5489 38.1941 54.5147C37.8403 56.1401 38.4942 56.9954 39.3764 57.188C40.0527 57.3357 40.6036 57.17 41.0604 56.8879L41.4769 57.5193C40.6528 58.491 39.5287 58.7597 38.1852 58.4641C36.1519 58.0208 34.9427 56.3954 35.4309 54.1564C35.9369 51.8234 38.0642 51.0622 39.8422 51.4518C41.7814 51.8727 42.4666 53.4131 42.1083 55.0565Z" fill="white"/>
<path d="M48.7052 56.476C49.2919 56.4491 50.3533 56.4088 51.0116 56.3819L50.8818 56.9775C50.1921 57.0133 49.4486 57.0357 49.0142 57.1387C48.5977 57.2328 47.9976 57.5551 47.8409 58.2895C47.6975 58.9522 47.9349 59.3463 48.329 59.4314C48.5037 59.4717 48.7141 59.4314 49.0276 59.2836L49.7845 58.9388L49.8696 59.1269L49.0769 59.6911C48.3379 60.2105 47.8364 60.5598 46.7929 60.3315C45.7225 60.0986 45.1672 59.3105 45.409 58.1955C45.6419 57.1611 46.3809 56.5835 48.7052 56.476ZM48.9202 59.4672L49.686 55.9521C49.9368 54.7968 49.8383 54.3938 48.9874 54.2102C48.647 54.134 48.3156 54.1072 47.6617 54.1072L48.8709 53.7713L48.6828 54.6266C48.4455 55.7237 47.8229 56.0327 47.2407 55.9028C46.7123 55.7864 46.3988 55.464 46.3674 54.9445C46.6227 53.7758 47.9259 53.2072 50.1115 53.6863C51.9835 54.0938 52.5075 55.0162 52.1044 56.8745L51.4281 59.9822C51.3968 60.1165 51.4595 60.2329 51.6073 60.2643C51.7148 60.2867 51.8223 60.2553 52.0372 60.0449L52.3821 60.3494C51.876 61.1061 51.2759 61.3166 50.313 61.1061C49.3232 60.8912 48.9067 60.3135 48.9202 59.4672Z" fill="white"/>
<path d="M52.7045 60.6763L53.9854 60.6718L55.8574 61.0793L57.0173 61.6166L56.8651 62.3062L52.5522 61.3658L52.7045 60.6763ZM53.8421 58.6612L54.0302 57.8059C54.1914 57.0581 54.2272 56.8387 54.3168 56.2924L53.6092 56.0103L53.7301 55.455L56.9323 55.1729L57.1427 55.3744L56.8919 57.0536L56.4172 59.2254C56.2336 60.0673 55.9425 61.4644 55.8395 62.0823L53.1793 61.5047C53.3405 60.8957 53.6584 59.5031 53.8421 58.6612ZM55.6245 57.188L56.7352 57.4298L56.5113 57.8776C57.0711 56.0954 58.2489 55.455 59.0596 55.6342C59.7224 55.7775 60.1433 56.27 60.0583 57.1163C59.8567 57.8417 59.3193 58.1642 58.7774 58.0433C58.3295 57.9448 58.0384 57.6403 57.8011 57.0492L57.5234 56.3641L57.9533 56.7984C57.5279 57.0492 56.883 57.6716 56.6008 58.3657L55.4499 57.9716L55.6245 57.188Z" fill="white"/>
<path d="M66.4626 60.3583C66.3999 60.6449 66.3461 60.8285 66.2386 61.0613L60.8107 59.8792L60.9809 59.1045L63.2604 59.6015C63.9098 59.7448 64.1337 59.5657 64.286 58.8716C64.492 57.9358 64.2233 57.5238 63.874 57.4477C63.4261 57.3491 62.9783 57.8507 62.5483 59.8165C62.1945 61.4464 62.8484 62.2972 63.7262 62.4898C64.4069 62.6375 64.9533 62.4719 65.4101 62.1898L65.8266 62.8211C65.0026 63.7928 63.8785 64.0615 62.5349 63.766C60.5017 63.3227 59.2924 61.6972 59.7761 59.4583C60.2822 57.1253 62.4095 56.364 64.1875 56.7536C66.1312 57.1745 66.8164 58.7149 66.4626 60.3583Z" fill="white"/>
<path d="M19.0171 64.6436C19.877 60.6941 22.5999 58.9478 25.8871 59.6597C29.1744 60.3762 30.9165 63.1122 30.0611 67.0483C29.2013 70.9977 26.4514 72.874 23.1642 72.162C19.877 71.4456 18.1572 68.5931 19.0171 64.6436ZM27.1143 66.4079C27.6203 64.0749 26.9351 62.4853 25.3452 62.1405C23.7554 61.7957 22.488 62.9599 21.9774 65.2929C21.4669 67.6259 22.1162 69.323 23.7016 69.6723C25.2915 70.0126 26.6037 68.7364 27.1143 66.4079Z" fill="white"/>
<path d="M33.8365 61.6121L38.0777 62.5346C40.7155 63.1078 42.6951 64.5407 42.0457 67.5185C41.4232 70.3843 38.942 71.1679 36.3848 70.6082L34.9741 70.3037L34.1052 74.3024L31.2076 73.6711L33.8365 61.6121ZM36.7386 68.2976C38.1493 68.6066 38.9734 68.0871 39.2287 66.905C39.4929 65.6914 38.8077 65.1004 37.4149 64.7959L36.2325 64.5407L35.4757 68.02L36.7386 68.2976Z" fill="white"/>
<path d="M45.203 64.0884L52.8479 65.7542L52.3239 68.1677L47.5811 67.1333L47.0929 69.3678L51.1236 70.2455L50.5952 72.6725L46.5645 71.7948L46.0091 74.3517L50.931 75.4219L50.4026 77.8489L42.5831 76.1473L45.203 64.0884Z" fill="white"/>
<path d="M55.6469 66.3631L58.5938 67.0035L60.3314 73.4337L60.9316 76.3623L61.0122 76.3802C61.1465 75.0681 61.2809 73.2859 61.5944 71.8441L62.4632 67.8453L65.2175 68.4454L62.5886 80.5088L59.6418 79.8685L57.9265 73.4068L57.3174 70.5097L57.2368 70.4917C57.0756 71.862 56.9591 73.568 56.6411 75.0234L55.7678 79.0221L53.0135 78.4221L55.6469 66.3631Z" fill="white"/>
<path d="M8.95386 36.4688L85.971 53.2385" stroke="white" stroke-width="2" stroke-miterlimit="10"/>
<path d="M1.13885 72.3456L78.156 89.1153" stroke="white" stroke-width="2" stroke-miterlimit="10"/>
<path d="M43.8281 8.04773C45.8069 8.04773 47.4109 6.44388 47.4109 4.46542C47.4109 2.48697 45.8069 0.883118 43.8281 0.883118C41.8494 0.883118 40.2453 2.48697 40.2453 4.46542C40.2453 6.44388 41.8494 8.04773 43.8281 8.04773Z" fill="white"/>
</svg>
