<svg width="83" height="76" viewBox="0 0 83 76" fill="none" xmlns="http://www.w3.org/2000/svg">
<path d="M69.9416 2.00002L2 13.8679L12.4052 73.4186L80.3468 61.5507L69.9416 2.00002Z" fill="#2DBC4B" stroke="white" stroke-width="3" stroke-miterlimit="10"/>
<path d="M25.2632 36.495C24.9855 36.5443 23.2031 36.8174 22.9209 36.8667L24.6362 46.6912L20.3144 47.4479L16.0554 23.0569L22.8493 21.8702C26.9964 21.1448 29.5178 23.8674 30.1985 27.7676C31.0853 32.8187 28.537 35.9218 25.2632 36.495ZM23.1449 33.0202C25.9663 32.5276 26.7098 32.0395 26.0873 28.4841C25.7469 26.5317 25.0258 25.0764 23.2837 25.3809L20.9817 25.7839L22.2715 33.1724L23.1449 33.0202Z" fill="white"/>
<path d="M46.581 24.9062L48.4082 35.3621C49.0621 39.0922 47.9514 42.6252 44.1895 43.279L36.3118 44.6537L32.0527 20.2627L39.9304 18.8879C42.407 18.4536 44.7582 19.8059 45.7256 22.0404C46.0928 22.9449 46.4063 23.8987 46.581 24.9062ZM42.6757 39.9519C44.4179 39.6474 44.6015 38.0354 44.2611 36.083L42.4339 25.6317C42.0935 23.6793 41.3725 22.224 39.6303 22.5285L37.0149 22.9852L40.0603 40.4087L42.6757 39.9519Z" fill="white"/>
<path d="M54.0243 20.0164L55.0722 26.0078L59.4612 25.2421L60.0703 28.7259L55.6813 29.4916L57.6787 40.9192L53.3212 41.6804L49.0621 17.2894L59.5508 15.4579L60.1599 18.9417L54.0243 20.0164Z" fill="white"/>
<path d="M25.2184 55.1857L25.8409 58.7591C26.0648 60.0308 25.6842 61.2398 24.3988 61.4637L21.7072 61.9339L20.2517 53.6005L22.9433 53.1304C23.7897 52.9826 24.5914 53.4438 24.9228 54.2095C25.0527 54.514 25.1602 54.8409 25.2184 55.1857ZM23.8838 60.3263C24.4795 60.2233 24.5421 59.6726 24.4257 59.0054L23.8032 55.432C23.6868 54.7648 23.4404 54.2677 22.8448 54.3707L21.9536 54.5275L22.9926 60.4785L23.8838 60.3263Z" fill="white"/>
<path d="M30.6956 53.5781L31.5376 58.3874C31.6854 59.2471 31.1972 60.3845 29.7103 60.6442C28.0667 60.9308 27.3054 60.0084 27.1531 59.1531L26.3111 54.3438C26.1634 53.4886 26.5709 52.3825 28.2145 52.0959C29.7059 51.8362 30.5478 52.7229 30.6956 53.5781ZM29.2087 53.8513C29.164 53.6005 28.846 53.1885 28.4205 53.2646C27.8966 53.3587 27.7622 53.8468 27.8025 54.0707L28.64 58.871C28.6892 59.1441 28.9803 59.5472 29.5043 59.4576C29.9343 59.3815 30.091 58.8754 30.0462 58.6291L29.2087 53.8513Z" fill="white"/>
<path d="M39.3347 50.2645L39.1108 58.8934L37.6597 59.1486L35.8146 54.4021L35.6847 59.4934L34.2337 59.7486L31.0853 51.7108L32.5498 51.4556L34.592 57.4649L34.6278 57.4604L34.5248 51.1108L35.9758 50.8556L38.018 56.8649L38.0538 56.8604L37.9508 50.5108L39.3347 50.2645Z" fill="white"/>
<path d="M44.8523 49.3017L46.3078 57.6351L44.8209 57.8948L42.5234 53.3766L42.5011 53.3811L43.3341 58.1545L41.8472 58.4142L40.3917 50.0809L41.9636 49.8077L44.1536 54.1871L44.176 54.1826L43.3699 49.5614L44.8523 49.3017Z" fill="white"/>
<path d="M53.245 55.1991L53.451 56.3902L50.007 56.9903L48.5515 48.6569L50.0384 48.3972L51.2879 55.5439L53.245 55.1991Z" fill="white"/>
<path d="M55.9904 55.9469L54.5035 56.2067L53.048 47.8733L54.5348 47.6136L55.9904 55.9469Z" fill="white"/>
<path d="M60.3255 46.6016L61.7811 54.9349L60.2942 55.1947L57.9967 50.6764L57.9743 50.6809L58.8073 55.4543L57.3204 55.714L55.8649 47.3807L57.4369 47.1076L59.6269 51.487L59.6493 51.4825L58.8432 46.8613L60.3255 46.6016Z" fill="white"/>
<path d="M64.1412 51.2228L64.0696 51.2362L64.0472 51.3258L64.5936 54.4468L63.1067 54.7065L61.6512 46.3732L63.1381 46.1135L63.6576 49.0913L63.68 49.0868L64.6249 45.8538L66.0312 45.6075L64.6697 49.6868L67.939 53.8647L66.2238 54.1647L64.1412 51.2228Z" fill="white"/>
</svg>
