<svg width="636" height="50" viewBox="0 0 636 50" fill="none" xmlns="http://www.w3.org/2000/svg">
<path d="M611.34 48.0648H24.5122C11.5827 48.0648 1 37.488 1 24.5559C1 11.6282 11.5783 1.047 24.5122 1.047H611.34C624.274 1.047 634.852 11.6238 634.852 24.5559C634.852 37.488 624.274 48.0648 611.34 48.0648Z" fill="#535BB4" stroke="#1D1D1B" stroke-width="2" stroke-miterlimit="10"/>
<path d="M445.877 28.6904C447.484 28.6904 448.788 27.3873 448.788 25.7798C448.788 24.1723 447.484 22.8691 445.877 22.8691C444.269 22.8691 442.966 24.1723 442.966 25.7798C442.966 27.3873 444.269 28.6904 445.877 28.6904Z" fill="white"/>
<path d="M190.04 34H199.42V31H193.62V19.1H190.04V34ZM205.871 34.28C208.751 34.28 211.431 32.08 211.431 28.3C211.431 24.54 208.751 22.34 205.871 22.34C202.971 22.34 200.291 24.54 200.291 28.3C200.291 32.08 202.971 34.28 205.871 34.28ZM205.871 31.4C204.531 31.4 203.931 30.2 203.931 28.3C203.931 26.42 204.531 25.22 205.871 25.22C207.191 25.22 207.791 26.42 207.791 28.3C207.791 30.2 207.191 31.4 205.871 31.4ZM215.6 34H219.72L223.4 22.62H219.98L218.58 27.86C218.3 28.98 218.02 30.16 217.74 31.36H217.64C217.34 30.16 217.08 28.98 216.78 27.86L215.4 22.62H211.82L215.6 34ZM229.604 34.28C230.924 34.28 232.484 33.82 233.664 32.98L232.484 30.84C231.664 31.32 230.904 31.56 230.084 31.56C228.644 31.56 227.564 30.92 227.244 29.36H233.924C234.004 29.08 234.084 28.46 234.084 27.82C234.084 24.72 232.484 22.34 229.204 22.34C226.464 22.34 223.804 24.62 223.804 28.3C223.804 32.08 226.324 34.28 229.604 34.28ZM227.184 27.02C227.424 25.68 228.284 25.06 229.264 25.06C230.564 25.06 231.064 25.9 231.064 27.02H227.184ZM243.122 34H246.682V28.74L251.182 19.1H247.442L246.202 22.42C245.782 23.54 245.382 24.58 244.962 25.74H244.882C244.462 24.58 244.082 23.54 243.682 22.42L242.442 19.1H238.642L243.122 28.74V34ZM255.591 34.28C258.471 34.28 261.151 32.08 261.151 28.3C261.151 24.54 258.471 22.34 255.591 22.34C252.691 22.34 250.011 24.54 250.011 28.3C250.011 32.08 252.691 34.28 255.591 34.28ZM255.591 31.4C254.251 31.4 253.651 30.2 253.651 28.3C253.651 26.42 254.251 25.22 255.591 25.22C256.911 25.22 257.511 26.42 257.511 28.3C257.511 30.2 256.911 31.4 255.591 31.4ZM266.492 34.28C268.032 34.28 269.092 33.56 270.032 32.44H270.112L270.372 34H273.272V22.62H269.712V30.08C269.112 30.92 268.612 31.24 267.812 31.24C266.912 31.24 266.492 30.78 266.492 29.22V22.62H262.932V29.66C262.932 32.5 263.992 34.28 266.492 34.28ZM275.805 34H279.365V27.5C279.945 26 280.965 25.46 281.805 25.46C282.305 25.46 282.645 25.54 283.065 25.64L283.645 22.58C283.325 22.44 282.945 22.34 282.265 22.34C281.125 22.34 279.865 23.08 279.025 24.6H278.965L278.705 22.62H275.805V34ZM289.266 34H298.926V31H292.846V27.84H297.826V24.84H292.846V22.08H298.706V19.1H289.266V34ZM303.499 34H307.619L311.299 22.62H307.879L306.479 27.86C306.199 28.98 305.919 30.16 305.639 31.36H305.539C305.239 30.16 304.979 28.98 304.679 27.86L303.299 22.62H299.719L303.499 34ZM317.502 34.28C318.822 34.28 320.382 33.82 321.562 32.98L320.382 30.84C319.562 31.32 318.802 31.56 317.982 31.56C316.542 31.56 315.462 30.92 315.142 29.36H321.822C321.902 29.08 321.982 28.46 321.982 27.82C321.982 24.72 320.382 22.34 317.102 22.34C314.362 22.34 311.702 24.62 311.702 28.3C311.702 32.08 314.222 34.28 317.502 34.28ZM315.082 27.02C315.322 25.68 316.182 25.06 317.162 25.06C318.462 25.06 318.962 25.9 318.962 27.02H315.082ZM323.923 34H327.483V27.5C328.063 26 329.083 25.46 329.923 25.46C330.423 25.46 330.763 25.54 331.183 25.64L331.763 22.58C331.443 22.44 331.063 22.34 330.383 22.34C329.243 22.34 327.983 23.08 327.143 24.6H327.083L326.823 22.62H323.923V34ZM334.268 38.38C336.968 38.38 338.208 36.94 339.308 34.02L343.228 22.62H339.828L338.508 27.34C338.248 28.42 337.988 29.48 337.768 30.56H337.668C337.368 29.44 337.128 28.38 336.788 27.34L335.268 22.62H331.688L336.048 33.66L335.888 34.24C335.628 35.04 335.068 35.6 333.988 35.6C333.728 35.6 333.428 35.5 333.228 35.46L332.588 38.16C333.068 38.3 333.528 38.38 334.268 38.38ZM349.102 34H352.302V28.9C352.302 27.42 352.022 25.2 351.842 23.74H351.922L353.122 27.3L355.142 32.74H357.102L359.102 27.3L360.342 23.74H360.442C360.242 25.2 359.962 27.42 359.962 28.9V34H363.222V19.1H359.342L357.062 25.54C356.782 26.4 356.542 27.34 356.242 28.24H356.142C355.862 27.34 355.622 26.4 355.322 25.54L352.962 19.1H349.102V34ZM370.967 34.28C373.847 34.28 376.527 32.08 376.527 28.3C376.527 24.54 373.847 22.34 370.967 22.34C368.067 22.34 365.387 24.54 365.387 28.3C365.387 32.08 368.067 34.28 370.967 34.28ZM370.967 31.4C369.627 31.4 369.027 30.2 369.027 28.3C369.027 26.42 369.627 25.22 370.967 25.22C372.287 25.22 372.887 26.42 372.887 28.3C372.887 30.2 372.287 31.4 370.967 31.4ZM378.428 34H381.988V26.4C382.648 25.7 383.268 25.38 383.788 25.38C384.688 25.38 385.108 25.82 385.108 27.4V34H388.668V26.4C389.348 25.7 389.968 25.38 390.488 25.38C391.388 25.38 391.788 25.82 391.788 27.4V34H395.348V26.96C395.348 24.12 394.268 22.34 391.788 22.34C390.268 22.34 389.208 23.22 388.228 24.22C387.648 23 386.688 22.34 385.108 22.34C383.568 22.34 382.588 23.12 381.648 24.06H381.588L381.328 22.62H378.428V34ZM402.962 34.28C404.282 34.28 405.842 33.82 407.022 32.98L405.842 30.84C405.022 31.32 404.262 31.56 403.442 31.56C402.002 31.56 400.922 30.92 400.602 29.36H407.282C407.362 29.08 407.442 28.46 407.442 27.82C407.442 24.72 405.842 22.34 402.562 22.34C399.822 22.34 397.162 24.62 397.162 28.3C397.162 32.08 399.682 34.28 402.962 34.28ZM400.542 27.02C400.782 25.68 401.642 25.06 402.622 25.06C403.922 25.06 404.422 25.9 404.422 27.02H400.542ZM409.383 34H412.943V26.4C413.623 25.74 414.103 25.38 414.903 25.38C415.803 25.38 416.223 25.82 416.223 27.4V34H419.783V26.96C419.783 24.12 418.723 22.34 416.243 22.34C414.703 22.34 413.543 23.12 412.603 24.04H412.543L412.283 22.62H409.383V34ZM426.693 34.28C427.853 34.28 428.673 34.04 429.273 33.86L428.713 31.28C428.433 31.38 428.033 31.5 427.673 31.5C426.833 31.5 426.233 31 426.233 29.74V25.4H428.913V22.62H426.233V19.6H423.293L422.893 22.62L421.133 22.76V25.4H422.673V29.78C422.673 32.46 423.833 34.28 426.693 34.28Z" fill="white"/>
</svg>
