<svg width="725" height="230" viewBox="0 0 725 230" fill="none" xmlns="http://www.w3.org/2000/svg">
<g filter="url(#filter0_d_17_20)">
<path d="M363.458 1.76315H311.702V160.132H363.458V1.76315Z" fill="#535BB4" stroke="#1D1D1B" stroke-width="2" stroke-miterlimit="10"/>
<path d="M413.298 1.76315H363.458V160.132H413.298V1.76315Z" fill="white" stroke="#1D1D1B" stroke-width="2" stroke-miterlimit="10"/>
<path d="M465.054 1.76315H413.298V160.132H465.054V1.76315Z" fill="#535BB4" stroke="#1D1D1B" stroke-width="2" stroke-miterlimit="10"/>
<path d="M516.81 1.76315H465.054V160.132H516.81V1.76315Z" fill="white" stroke="#1D1D1B" stroke-width="2" stroke-miterlimit="10"/>
<path d="M566.649 1.76315H516.81V160.132H566.649V1.76315Z" fill="#535BB4" stroke="#1D1D1B" stroke-width="2" stroke-miterlimit="10"/>
<path d="M618.405 1.76315H566.649V160.132H618.405V1.76315Z" fill="white" stroke="#1D1D1B" stroke-width="2" stroke-miterlimit="10"/>
<path d="M668.244 1.76315H616.488V160.132H668.244V1.76315Z" fill="#535BB4" stroke="#1D1D1B" stroke-width="2" stroke-miterlimit="10"/>
<path d="M720 1.76315H668.244V160.132H720V1.76315Z" fill="white" stroke="#1D1D1B" stroke-width="2" stroke-miterlimit="10"/>
<path d="M259.946 1.76315H208.19V160.132H259.946V1.76315Z" fill="#535BB4" stroke="#1D1D1B" stroke-width="2" stroke-miterlimit="10"/>
<path d="M311.702 1.76315H259.946V160.132H311.702V1.76315Z" fill="white" stroke="#1D1D1B" stroke-width="2" stroke-miterlimit="10"/>
<path d="M158.351 1.76315H108.512V160.132H158.351V1.76315Z" fill="#535BB4" stroke="#1D1D1B" stroke-width="2" stroke-miterlimit="10"/>
<path d="M208.19 1.76315H158.351V160.132H208.19V1.76315Z" fill="white" stroke="#1D1D1B" stroke-width="2" stroke-miterlimit="10"/>
<path d="M56.756 1.76315H5V160.132H56.756V1.76315Z" fill="#535BB4" stroke="#1D1D1B" stroke-width="2" stroke-miterlimit="10"/>
<path d="M108.512 1.76315H56.756V160.132H108.512V1.76315Z" fill="white" stroke="#1D1D1B" stroke-width="2" stroke-miterlimit="10"/>
<path d="M5 160.132V202.632C5 212.514 16.5249 220.526 30.7397 220.526C44.9544 220.526 56.4793 212.514 56.4793 202.632H56.756V160.132H5Z" fill="#535BB4" stroke="#1D1D1B" stroke-width="2" stroke-miterlimit="10"/>
<path d="M56.756 160.132V202.632C56.756 212.514 68.2809 220.526 82.4957 220.526C96.7104 220.526 108.235 212.514 108.235 202.632H108.512V160.132H56.756Z" fill="white" stroke="#1D1D1B" stroke-width="2" stroke-miterlimit="10"/>
<path d="M108.512 160.132V202.632C108.512 212.514 119.61 220.526 133.298 220.526C146.987 220.526 158.085 212.514 158.085 202.632H158.351V160.132H108.512Z" fill="#535BB4" stroke="#1D1D1B" stroke-width="2" stroke-miterlimit="10"/>
<path d="M158.351 160.132V202.632C158.351 212.514 169.449 220.526 183.138 220.526C196.826 220.526 207.924 212.514 207.924 202.632H208.19V160.132H158.351Z" fill="white" stroke="#1D1D1B" stroke-width="2" stroke-miterlimit="10"/>
<path d="M208.19 160.132V202.632C208.19 212.514 219.715 220.526 233.93 220.526C248.145 220.526 259.67 212.514 259.67 202.632H259.946V160.132H208.19Z" fill="#535BB4" stroke="#1D1D1B" stroke-width="2" stroke-miterlimit="10"/>
<path d="M259.946 160.132V202.632C259.946 212.514 271.471 220.526 285.686 220.526C299.901 220.526 311.426 212.514 311.426 202.632H311.702V160.132H259.946Z" fill="white" stroke="#1D1D1B" stroke-width="2" stroke-miterlimit="10"/>
<path d="M312 160V202.926C312 212.907 323.357 221 337.364 221C351.371 221 362.727 212.907 362.727 202.926H363V160H312Z" fill="#535BB4" stroke="#1D1D1B" stroke-width="2" stroke-miterlimit="10"/>
<path d="M363 160V202.926C363 212.907 374.134 221 387.866 221C401.599 221 412.733 212.907 412.733 202.926H413V160H363Z" fill="white" stroke="#1D1D1B" stroke-width="2" stroke-miterlimit="10"/>
<path d="M413.298 160.132V202.632C413.298 212.514 424.822 220.526 439.037 220.526C453.252 220.526 464.777 212.514 464.777 202.632H465.054V160.132H413.298Z" fill="#535BB4" stroke="#1D1D1B" stroke-width="2" stroke-miterlimit="10"/>
<path d="M465.054 160.132V202.632C465.054 212.514 476.579 220.526 490.793 220.526C505.008 220.526 516.533 212.514 516.533 202.632H516.81V160.132H465.054Z" fill="white" stroke="#1D1D1B" stroke-width="2" stroke-miterlimit="10"/>
<path d="M516.81 160.132V202.632C516.81 212.514 527.908 220.526 541.596 220.526C555.284 220.526 566.382 212.514 566.382 202.632H566.649V160.132H516.81Z" fill="#535BB4" stroke="#1D1D1B" stroke-width="2" stroke-miterlimit="10"/>
<path d="M567 160V202.926C567 212.907 577.911 221 591.369 221C604.827 221 615.738 212.907 615.738 202.926H616V160H567Z" fill="white" stroke="#1D1D1B" stroke-width="2" stroke-miterlimit="10"/>
<path d="M616.488 160.132V202.632C616.488 212.514 628.013 220.526 642.228 220.526C656.442 220.526 667.967 212.514 667.967 202.632H668.244V160.132H616.488Z" fill="#535BB4" stroke="#1D1D1B" stroke-width="2" stroke-miterlimit="10"/>
<path d="M668.244 160.132V202.632C668.244 212.514 679.769 220.526 693.984 220.526C708.198 220.526 719.723 212.514 719.723 202.632H720V160.132H668.244Z" fill="white" stroke="#1D1D1B" stroke-width="2" stroke-miterlimit="10"/>
</g>
<defs>
<filter id="filter0_d_17_20" x="0" y="0.763153" width="725" height="229.237" filterUnits="userSpaceOnUse" color-interpolation-filters="sRGB">
<feFlood flood-opacity="0" result="BackgroundImageFix"/>
<feColorMatrix in="SourceAlpha" type="matrix" values="0 0 0 0 0 0 0 0 0 0 0 0 0 0 0 0 0 0 127 0" result="hardAlpha"/>
<feOffset dy="4"/>
<feGaussianBlur stdDeviation="2"/>
<feComposite in2="hardAlpha" operator="out"/>
<feColorMatrix type="matrix" values="0 0 0 0 0 0 0 0 0 0 0 0 0 0 0 0 0 0 0.25 0"/>
<feBlend mode="normal" in2="BackgroundImageFix" result="effect1_dropShadow_17_20"/>
<feBlend mode="normal" in="SourceGraphic" in2="effect1_dropShadow_17_20" result="shape"/>
</filter>
</defs>
</svg>
