<svg width="725" height="283" viewBox="0 0 725 283" fill="none" xmlns="http://www.w3.org/2000/svg">
<g filter="url(#filter0_d_17_21)">
<path d="M719 107H6V274H719V107Z" fill="#F071BB" stroke="#1D1D1B" stroke-width="2" stroke-miterlimit="10"/>
<path d="M612.659 107.342H112.341V273.763H612.659V107.342Z" fill="#F071BB" stroke="#1D1D1B" stroke-width="2" stroke-miterlimit="10"/>
<path d="M597.831 125.091H128.034V256.741H597.831V125.091Z" fill="white" stroke="#1D1D1B" stroke-width="2" stroke-miterlimit="10"/>
<path d="M207.978 214.389V214.644C207.978 215.481 207.338 215.992 206.371 215.992H191.529C190.566 215.992 189.921 215.477 189.921 214.644V214.389C189.921 212.396 192.747 211.371 192.232 208.285L188.828 188.628L179.835 213.937C179.388 215.284 178.743 215.929 177.332 215.929C175.917 215.929 175.016 215.352 174.439 214.004L163.645 187.28L160.69 208.285C160.242 211.433 163.001 212.396 163.001 214.389V214.644C163.001 215.481 162.36 215.992 161.393 215.992H152.848C151.885 215.992 151.24 215.477 151.24 214.644V214.389C151.24 212.396 153.426 211.433 153.873 208.285L158.437 178.091C158.885 174.943 155.804 173.98 155.804 171.988V171.733C155.804 170.9 156.449 170.385 157.411 170.385H172.831C173.794 170.385 174.439 170.9 174.439 171.733V171.988C174.439 173.528 171.546 175.328 172.576 178.284L179.195 197.619L185.684 177.639C186.522 175.069 183.244 173.461 183.244 171.988V171.733C183.244 170.9 183.888 170.385 184.851 170.385H200.656C201.619 170.385 202.264 170.9 202.264 171.733V171.988C202.264 173.98 199.053 174.943 199.63 178.091L205.349 208.285C205.923 211.433 207.978 212.396 207.978 214.389Z" fill="#F071BB" stroke="#1D1D1B" stroke-width="2" stroke-miterlimit="10"/>
<path d="M213.057 214.649V214.393C213.057 212.401 215.69 211.438 215.69 208.29V178.096C215.69 174.948 213.057 173.985 213.057 171.992V171.737C213.057 170.904 213.697 170.389 214.665 170.389H230.407C231.37 170.389 232.015 170.904 232.015 171.737V171.992C232.015 173.985 229.059 174.948 229.059 178.096V206.36C229.059 208.671 230.022 210.986 232.462 210.986H237.089C242.938 210.986 244.026 201.349 247.304 201.349H248.267C249.36 201.349 249.938 202.057 249.745 203.082L248.012 213.744C247.757 215.284 247.179 215.992 245.634 215.992H214.665C213.697 215.996 213.057 215.481 213.057 214.649Z" fill="#F071BB" stroke="#1D1D1B" stroke-width="2" stroke-miterlimit="10"/>
<path d="M253.664 214.649V214.393C253.664 212.401 256.297 211.438 256.297 208.29V178.096C256.297 174.948 253.664 173.985 253.664 171.992V171.737C253.664 170.904 254.304 170.389 255.272 170.389H270.884C271.847 170.389 272.492 170.904 272.492 171.737V171.992C272.492 173.985 269.598 174.948 269.598 178.096V190.302H284.248L284.31 178.096C284.31 174.948 281.74 173.985 281.74 171.992V171.737C281.74 170.904 282.317 170.389 283.28 170.389H298.892C299.855 170.389 300.5 170.904 300.5 171.737V171.992C300.5 173.985 297.544 174.948 297.544 178.096V208.29C297.544 211.438 300.5 212.401 300.5 214.393V214.649C300.5 215.486 299.855 215.996 298.892 215.996H283.28C282.317 215.996 281.74 215.481 281.74 214.649V214.393C281.74 212.401 284.31 211.438 284.31 208.29L284.248 195.828H269.598L269.536 208.29C269.536 211.438 272.492 212.401 272.492 214.393V214.649C272.492 215.486 271.851 215.996 270.884 215.996H255.272C254.304 215.996 253.664 215.481 253.664 214.649Z" fill="#F071BB" stroke="#1D1D1B" stroke-width="2" stroke-miterlimit="10"/>
<path d="M318.49 204.882C318.49 201.797 319.968 199.742 323.632 199.742C331.021 199.742 330.058 211.948 338.796 211.948C341.944 211.948 343.807 210.341 343.807 207.578C343.807 195.949 319.198 202.697 319.135 184.065C319.135 175.521 326.265 169.803 336.933 169.803C347.404 169.803 355.886 175.328 355.823 181.557C355.823 184.705 354.023 186.823 350.364 186.823C341.819 186.823 343.552 174.424 336.678 174.424C333.274 174.424 331.796 176.479 331.796 179.242C331.796 192.926 356.276 185.538 356.276 203.14C356.276 211.814 347.986 216.632 338.285 216.632C326.843 216.637 318.49 211.048 318.49 204.882Z" fill="#535BB4" stroke="#1D1D1B" stroke-width="2" stroke-miterlimit="10"/>
<path d="M369.828 214.649V214.393C369.828 212.401 372.654 211.438 372.654 208.29V175.785H370.728C366.102 175.785 365.269 183.751 361.928 183.751H360.705C359.482 183.751 358.712 182.981 358.905 181.759L360.19 172.507C360.383 170.967 361.027 170.389 362.568 170.389H395.848C397.389 170.389 398.033 170.967 398.226 172.507L399.511 181.759C399.704 182.981 398.934 183.751 397.711 183.751H396.488C393.147 183.751 392.31 175.785 387.688 175.785H385.762V208.29C385.762 211.438 388.655 212.401 388.655 214.393V214.649C388.655 215.486 388.015 215.996 387.048 215.996H371.373C370.405 215.996 369.828 215.481 369.828 214.649Z" fill="#535BB4" stroke="#1D1D1B" stroke-width="2" stroke-miterlimit="10"/>
<path d="M448.538 214.066C448.538 215.929 445.712 216.377 441.211 216.377C436.777 216.377 434.851 215.222 434.529 210.404C432.473 214.259 428.487 216.637 421.228 216.637C411.653 216.637 405.23 210.596 405.23 199.357V179.506C405.23 176.358 402.597 175.395 402.597 173.663V173.407C402.597 172.637 403.237 171.93 404.205 171.8L415.513 170.385C417.631 170.129 418.917 170.577 418.917 171.862L418.662 201.349C418.599 208.223 421.169 211.948 425.021 211.948C430.995 211.948 433.051 206.553 433.051 200.834V179.506C433.051 176.358 429.773 175.395 429.773 173.663V173.407C429.773 172.637 431.058 171.93 432.021 171.8L442.684 170.385C444.803 170.129 445.833 170.577 445.833 171.862V208.478C445.837 213.874 448.538 211.241 448.538 214.066Z" fill="#535BB4" stroke="#1D1D1B" stroke-width="2" stroke-miterlimit="10"/>
<path d="M455.027 214.649V214.393C455.027 212.401 457.66 211.438 457.66 208.29V178.096C457.66 174.948 455.027 173.985 455.027 171.992V171.737C455.027 170.904 455.668 170.389 456.635 170.389H472.184C491.397 170.389 501.16 179.896 501.16 193.643C501.16 206.62 491.393 216.001 475.525 216.001H456.635C455.672 215.996 455.027 215.481 455.027 214.649ZM478.929 210.986C483.618 210.986 487.281 207.582 487.281 200.001C487.281 187.602 481.822 175.395 474.11 175.395H473.918C472.247 175.395 470.706 176.166 470.706 178.736V203.597C470.706 208.285 473.017 210.986 477.003 210.986H478.929Z" fill="#535BB4" stroke="#1D1D1B" stroke-width="2" stroke-miterlimit="10"/>
<path d="M505.464 214.389C505.464 212.396 508.098 211.433 508.098 208.285V178.091C508.098 174.943 505.464 173.98 505.464 171.988V171.733C505.464 170.9 506.105 170.385 507.072 170.385H522.621C523.584 170.385 524.229 170.9 524.229 171.733V171.988C524.229 173.98 521.273 174.943 521.273 178.091V208.285C521.273 211.433 524.229 212.396 524.229 214.389V214.644C524.229 215.481 523.589 215.992 522.621 215.992H507.072C506.109 215.992 505.464 215.477 505.464 214.644V214.389Z" fill="#535BB4" stroke="#1D1D1B" stroke-width="2" stroke-miterlimit="10"/>
<path d="M528.47 193.513C528.47 179.314 537.53 169.744 551.15 169.744C563.098 169.744 573.959 179.251 573.959 193.513C573.959 207.775 563.743 216.641 551.15 216.641C539.519 216.637 528.47 207.771 528.47 193.513ZM560.335 204.045C560.335 194.346 553.075 175.136 546.393 175.136C542.923 175.136 541.189 177.514 541.189 182.524C541.189 193.961 548.386 211.241 555.001 211.241C558.602 211.241 560.335 208.93 560.335 204.045Z" fill="#535BB4" stroke="#1D1D1B" stroke-width="2" stroke-miterlimit="10"/>
<g filter="url(#filter1_d_17_21)">
<line x1="5" y1="-7" x2="5.00001" y2="274" stroke="black" stroke-width="2"/>
</g>
<g filter="url(#filter2_d_17_21)">
<line x1="720" y1="-7" x2="720" y2="274" stroke="black" stroke-width="2"/>
</g>
</g>
<defs>
<filter id="filter0_d_17_21" x="0" y="-7" width="725" height="290" filterUnits="userSpaceOnUse" color-interpolation-filters="sRGB">
<feFlood flood-opacity="0" result="BackgroundImageFix"/>
<feColorMatrix in="SourceAlpha" type="matrix" values="0 0 0 0 0 0 0 0 0 0 0 0 0 0 0 0 0 0 127 0" result="hardAlpha"/>
<feOffset dy="4"/>
<feGaussianBlur stdDeviation="2"/>
<feComposite in2="hardAlpha" operator="out"/>
<feColorMatrix type="matrix" values="0 0 0 0 0 0 0 0 0 0 0 0 0 0 0 0 0 0 0.25 0"/>
<feBlend mode="normal" in2="BackgroundImageFix" result="effect1_dropShadow_17_21"/>
<feBlend mode="normal" in="SourceGraphic" in2="effect1_dropShadow_17_21" result="shape"/>
</filter>
<filter id="filter1_d_17_21" x="0" y="-7" width="10" height="289" filterUnits="userSpaceOnUse" color-interpolation-filters="sRGB">
<feFlood flood-opacity="0" result="BackgroundImageFix"/>
<feColorMatrix in="SourceAlpha" type="matrix" values="0 0 0 0 0 0 0 0 0 0 0 0 0 0 0 0 0 0 127 0" result="hardAlpha"/>
<feOffset dy="4"/>
<feGaussianBlur stdDeviation="2"/>
<feComposite in2="hardAlpha" operator="out"/>
<feColorMatrix type="matrix" values="0 0 0 0 0 0 0 0 0 0 0 0 0 0 0 0 0 0 0.25 0"/>
<feBlend mode="normal" in2="BackgroundImageFix" result="effect1_dropShadow_17_21"/>
<feBlend mode="normal" in="SourceGraphic" in2="effect1_dropShadow_17_21" result="shape"/>
</filter>
<filter id="filter2_d_17_21" x="715" y="-7" width="10" height="289" filterUnits="userSpaceOnUse" color-interpolation-filters="sRGB">
<feFlood flood-opacity="0" result="BackgroundImageFix"/>
<feColorMatrix in="SourceAlpha" type="matrix" values="0 0 0 0 0 0 0 0 0 0 0 0 0 0 0 0 0 0 127 0" result="hardAlpha"/>
<feOffset dy="4"/>
<feGaussianBlur stdDeviation="2"/>
<feComposite in2="hardAlpha" operator="out"/>
<feColorMatrix type="matrix" values="0 0 0 0 0 0 0 0 0 0 0 0 0 0 0 0 0 0 0.25 0"/>
<feBlend mode="normal" in2="BackgroundImageFix" result="effect1_dropShadow_17_21"/>
<feBlend mode="normal" in="SourceGraphic" in2="effect1_dropShadow_17_21" result="shape"/>
</filter>
</defs>
</svg>
