<svg width="323" height="114" viewBox="0 0 323 114" fill="none" xmlns="http://www.w3.org/2000/svg">
<path d="M321.477 1.1344H1V112.752H321.477V1.1344Z" fill="#F071BB" stroke="#1D1D1B" stroke-width="2" stroke-miterlimit="10"/>
<path d="M311.979 13.0384H11.0518V101.335H311.979V13.0384Z" fill="white" stroke="#1D1D1B" stroke-width="2" stroke-miterlimit="10"/>
<path d="M62.2602 72.9299V73.1011C62.2602 73.6627 61.85 74.0051 61.2303 74.0051H51.7234C51.1066 74.0051 50.6935 73.6597 50.6935 73.1011V72.9299C50.6935 71.5934 52.5037 70.9057 52.1738 68.8364L49.9936 55.652L44.2332 72.6266C43.9463 73.5306 43.5332 73.963 42.6296 73.963C41.7231 73.963 41.1465 73.5756 40.7764 72.6716L33.8628 54.748L31.9695 68.8364C31.6826 70.9477 33.4497 71.5934 33.4497 72.9299V73.1011C33.4497 73.6627 33.0395 74.0051 32.4199 74.0051H26.9464C26.3296 74.0051 25.9165 73.6597 25.9165 73.1011V72.9299C25.9165 71.5934 27.3164 70.9477 27.6033 68.8364L30.5265 48.5853C30.8134 46.474 28.8397 45.8283 28.8397 44.4918V44.3206C28.8397 43.762 29.2528 43.4166 29.8696 43.4166H39.7466C40.3633 43.4166 40.7764 43.762 40.7764 44.3206V44.4918C40.7764 45.5249 38.9232 46.7322 39.583 48.7144L43.823 61.6826L47.9797 48.2819C48.5162 46.5581 46.4163 45.4799 46.4163 44.4918V44.3206C46.4163 43.762 46.8294 43.4166 47.4462 43.4166H57.5698C58.1866 43.4166 58.5997 43.762 58.5997 44.3206V44.4918C58.5997 45.8283 56.5428 46.474 56.9129 48.5853L60.5762 68.8364C60.9434 70.9477 62.2602 71.5934 62.2602 72.9299Z" fill="#F071BB" stroke="#1D1D1B" stroke-width="2" stroke-miterlimit="10"/>
<path d="M65.5132 73.1041V72.9329C65.5132 71.5964 67.2 70.9507 67.2 68.8394V48.5883C67.2 46.477 65.5132 45.8313 65.5132 44.4948V44.3236C65.5132 43.765 65.9234 43.4196 66.543 43.4196H76.6266C77.2433 43.4196 77.6564 43.765 77.6564 44.3236V44.4948C77.6564 45.8313 75.7631 46.477 75.7631 48.5883V67.545C75.7631 69.0947 76.3798 70.6474 77.9433 70.6474H80.9067C84.6532 70.6474 85.3503 64.1843 87.4502 64.1843H88.067C88.7669 64.1843 89.137 64.6588 89.0136 65.3466L87.9035 72.4974C87.7399 73.5306 87.3699 74.0051 86.3802 74.0051H66.543C65.9234 74.0081 65.5132 73.6627 65.5132 73.1041Z" fill="#F071BB" stroke="#1D1D1B" stroke-width="2" stroke-miterlimit="10"/>
<path d="M91.5239 73.1041V72.9329C91.5239 71.5964 93.2107 70.9507 93.2107 68.8394V48.5883C93.2107 46.477 91.5239 45.8313 91.5239 44.4948V44.3236C91.5239 43.765 91.9342 43.4196 92.5538 43.4196H102.554C103.171 43.4196 103.584 43.765 103.584 44.3236V44.4948C103.584 45.8313 101.731 46.477 101.731 48.5883V56.7752H111.114L111.154 48.5883C111.154 46.477 109.508 45.8313 109.508 44.4948V44.3236C109.508 43.765 109.878 43.4196 110.495 43.4196H120.495C121.112 43.4196 121.525 43.765 121.525 44.3236V44.4948C121.525 45.8313 119.632 46.477 119.632 48.5883V68.8394C119.632 70.9507 121.525 71.5964 121.525 72.9329V73.1041C121.525 73.6657 121.112 74.0081 120.495 74.0081H110.495C109.878 74.0081 109.508 73.6627 109.508 73.1041V72.9329C109.508 71.5964 111.154 70.9507 111.154 68.8394L111.114 60.4813H101.731L101.691 68.8394C101.691 70.9507 103.584 71.5964 103.584 72.9329V73.1041C103.584 73.6657 103.174 74.0081 102.554 74.0081H92.5538C91.9342 74.0081 91.5239 73.6627 91.5239 73.1041Z" fill="#F071BB" stroke="#1D1D1B" stroke-width="2" stroke-miterlimit="10"/>
<path d="M133.048 66.5539C133.048 64.4847 133.995 63.1061 136.342 63.1061C141.075 63.1061 140.458 71.2931 146.055 71.2931C148.072 71.2931 149.265 70.2149 149.265 68.3619C149.265 60.5624 133.502 65.0883 133.461 52.5916C133.461 46.8614 138.028 43.0262 144.862 43.0262C151.569 43.0262 157.002 46.7322 156.962 50.9098C156.962 53.0211 155.809 54.4417 153.465 54.4417C147.991 54.4417 149.102 46.1256 144.698 46.1256C142.518 46.1256 141.571 47.5041 141.571 49.3571C141.571 58.5352 157.252 53.5797 157.252 65.3856C157.252 71.203 151.942 74.4345 145.728 74.4345C138.398 74.4375 133.048 70.6894 133.048 66.5539Z" fill="#535BB4" stroke="#1D1D1B" stroke-width="2" stroke-miterlimit="10"/>
<path d="M165.932 73.1041V72.9329C165.932 71.5964 167.743 70.9507 167.743 68.8394V47.0386H166.509C163.546 47.0386 163.012 52.3814 160.872 52.3814H160.089C159.306 52.3814 158.812 51.8649 158.936 51.045L159.759 44.8402C159.882 43.807 160.295 43.4196 161.282 43.4196H182.6C183.586 43.4196 183.999 43.807 184.123 44.8402L184.946 51.045C185.07 51.8649 184.576 52.3814 183.793 52.3814H183.01C180.87 52.3814 180.333 47.0386 177.373 47.0386H176.139V68.8394C176.139 70.9507 177.992 71.5964 177.992 72.9329V73.1041C177.992 73.6657 177.582 74.0081 176.963 74.0081H166.922C166.302 74.0081 165.932 73.6627 165.932 73.1041Z" fill="#535BB4" stroke="#1D1D1B" stroke-width="2" stroke-miterlimit="10"/>
<path d="M216.35 72.7137C216.35 73.963 214.54 74.2634 211.657 74.2634C208.817 74.2634 207.583 73.4885 207.377 70.257C206.06 72.8428 203.507 74.4376 198.857 74.4376C192.723 74.4376 188.61 70.3861 188.61 62.8479V49.5343C188.61 47.423 186.923 46.7773 186.923 45.615V45.4438C186.923 44.9273 187.333 44.4528 187.953 44.3657L195.196 43.4166C196.553 43.2454 197.376 43.5458 197.376 44.4077L197.213 64.1843C197.173 68.7944 198.819 71.2931 201.286 71.2931C205.113 71.2931 206.43 67.6742 206.43 63.839V49.5343C206.43 47.423 204.33 46.7773 204.33 45.615V45.4438C204.33 44.9273 205.154 44.4528 205.77 44.3657L212.601 43.4166C213.958 43.2454 214.617 43.5458 214.617 44.4077V68.9656C214.62 72.5845 216.35 70.8186 216.35 72.7137Z" fill="#535BB4" stroke="#1D1D1B" stroke-width="2" stroke-miterlimit="10"/>
<path d="M220.507 73.1041V72.9329C220.507 71.5964 222.194 70.9507 222.194 68.8394V48.5883C222.194 46.477 220.507 45.8313 220.507 44.4948V44.3236C220.507 43.765 220.917 43.4196 221.537 43.4196H231.497C243.804 43.4196 250.057 49.7956 250.057 59.0157C250.057 67.7192 243.801 74.0111 233.637 74.0111H221.537C220.92 74.0081 220.507 73.6627 220.507 73.1041ZM235.817 70.6474C238.821 70.6474 241.167 68.3649 241.167 63.2803C241.167 54.9642 237.67 46.7773 232.73 46.7773H232.607C231.537 46.7773 230.55 47.2939 230.55 49.0177V65.692C230.55 68.8364 232.03 70.6474 234.584 70.6474H235.817Z" fill="#535BB4" stroke="#1D1D1B" stroke-width="2" stroke-miterlimit="10"/>
<path d="M252.814 72.9299C252.814 71.5934 254.501 70.9477 254.501 68.8364V48.5853C254.501 46.474 252.814 45.8283 252.814 44.4918V44.3206C252.814 43.762 253.224 43.4166 253.844 43.4166H263.804C264.421 43.4166 264.834 43.762 264.834 44.3206V44.4918C264.834 45.8283 262.941 46.474 262.941 48.5853V68.8364C262.941 70.9477 264.834 71.5934 264.834 72.9299V73.1011C264.834 73.6627 264.424 74.0051 263.804 74.0051H253.844C253.227 74.0051 252.814 73.6597 252.814 73.1011V72.9299Z" fill="#535BB4" stroke="#1D1D1B" stroke-width="2" stroke-miterlimit="10"/>
<path d="M267.551 58.9286C267.551 49.4052 273.354 42.9872 282.078 42.9872C289.732 42.9872 296.688 49.3632 296.688 58.9286C296.688 68.4941 290.145 74.4406 282.078 74.4406C274.628 74.4376 267.551 68.4911 267.551 58.9286ZM287.962 65.9923C287.962 59.4872 283.311 46.6031 279.031 46.6031C276.808 46.6031 275.698 48.1979 275.698 51.5586C275.698 59.2289 280.308 70.8186 284.545 70.8186C286.851 70.8186 287.962 69.2689 287.962 65.9923Z" fill="#535BB4" stroke="#1D1D1B" stroke-width="2" stroke-miterlimit="10"/>
</svg>
